<svg width="1584" height="1080" viewBox="0 0 1584 1080" fill="none" xmlns="http://www.w3.org/2000/svg">
<rect width="1584" height="1080" fill="white"/>
<path d="M248 144.5H1288C1292.14 144.5 1295.5 147.858 1295.5 152V904C1295.5 908.142 1292.14 911.5 1288 911.5H248C243.858 911.5 240.5 908.142 240.5 904V152C240.5 147.858 243.858 144.5 248 144.5Z" fill="white"/>
<path d="M248 144.5H1288C1292.14 144.5 1295.5 147.858 1295.5 152V904C1295.5 908.142 1292.14 911.5 1288 911.5H248C243.858 911.5 240.5 908.142 240.5 904V152C240.5 147.858 243.858 144.5 248 144.5Z" stroke="#8D8D8D"/>
<path d="M241 152C241 148.134 244.134 145 248 145H1288C1291.87 145 1295 148.134 1295 152V904C1295 907.866 1291.87 911 1288 911H248C244.134 911 241 907.866 241 904V152Z" fill="white"/>
<g clip-path="url(#clip0_224_4952)">
<path d="M301.18 173H296.742V171.516H298.03V164.712H296.742V163.228H301.18V164.712H299.878V171.516H301.18V173ZM303.228 173V163.228H307.75C309.36 163.228 310.34 164.222 310.34 165.734C310.34 167.218 309.486 167.778 308.59 167.834V167.918C309.444 167.932 310.704 168.534 310.704 170.2C310.704 171.768 309.626 173 308.184 173H303.228ZM305.076 168.814V171.432H307.652C308.352 171.432 308.772 171.054 308.772 170.368V169.892C308.772 169.206 308.352 168.814 307.652 168.814H305.076ZM305.076 164.796V167.302H307.358C308.03 167.302 308.422 166.91 308.422 166.266V165.832C308.422 165.174 308.03 164.796 307.358 164.796H305.076ZM312.671 173V163.228H314.757L317.263 168.002H317.319L319.797 163.228H321.799V173H320.049V165.986H319.993L319.237 167.54L317.235 171.236L315.233 167.54L314.477 165.986H314.421V173H312.671ZM331.523 173.168C328.947 173.168 327.309 171.474 327.309 168.184C327.309 164.894 328.947 163.06 331.523 163.06C333.273 163.06 334.407 163.802 335.093 165.314L333.511 166.154C333.231 165.286 332.615 164.698 331.523 164.698C330.151 164.698 329.269 165.692 329.269 167.358V168.898C329.269 170.578 330.151 171.53 331.523 171.53C332.629 171.53 333.315 170.858 333.637 169.976L335.135 170.858C334.435 172.314 333.273 173.168 331.523 173.168ZM339.518 173H338.552C337.334 173 336.76 172.356 336.76 171.236V162.64H338.552V171.572H339.518V173ZM343.933 173.168C341.847 173.168 340.545 171.684 340.545 169.332C340.545 166.994 341.847 165.524 343.933 165.524C346.033 165.524 347.335 166.994 347.335 169.332C347.335 171.684 346.033 173.168 343.933 173.168ZM343.933 171.726C344.871 171.726 345.459 171.124 345.459 170.018V168.66C345.459 167.568 344.871 166.966 343.933 166.966C343.009 166.966 342.421 167.568 342.421 168.66V170.018C342.421 171.124 343.009 171.726 343.933 171.726ZM353.452 173V171.782H353.382C353.13 172.51 352.542 173.168 351.338 173.168C349.84 173.168 349 172.132 349 170.312V165.692H350.792V170.13C350.792 171.138 351.17 171.684 352.024 171.684C352.738 171.684 353.452 171.306 353.452 170.522V165.692H355.244V173H353.452ZM362.01 173V171.782H361.94C361.674 172.608 360.89 173.168 359.924 173.168C358.09 173.168 357.068 171.782 357.068 169.332C357.068 166.896 358.09 165.524 359.924 165.524C360.89 165.524 361.688 166.056 361.94 166.896H362.01V162.64H363.802V173H362.01ZM360.498 171.684C361.352 171.684 362.01 171.25 362.01 170.494V168.17C362.01 167.456 361.352 166.994 360.498 166.994C359.574 166.994 358.944 167.68 358.944 168.716V169.976C358.944 171.012 359.574 171.684 360.498 171.684Z" fill="black"/>
<rect width="24" height="24" transform="translate(256 156)" fill="white" fill-opacity="0.01" style="mix-blend-mode:multiply"/>
<path d="M268 161.25C268.38 161.25 268.759 161.288 269.132 161.363C270.311 161.588 271.394 162.162 272.243 163.009C273.092 163.857 273.667 164.94 273.895 166.118L274.09 167.13L275.102 167.31C276.125 167.486 277.044 168.041 277.675 168.864C278.307 169.687 278.606 170.718 278.511 171.751C278.416 172.785 277.936 173.745 277.165 174.439C276.394 175.134 275.39 175.513 274.352 175.5H261.625C260.587 175.513 259.583 175.134 258.812 174.439C258.041 173.745 257.561 172.785 257.466 171.751C257.372 170.718 257.67 169.687 258.302 168.864C258.933 168.041 259.852 167.486 260.875 167.31L261.88 167.13L262.075 166.118C262.339 164.742 263.076 163.503 264.158 162.614C265.24 161.725 266.599 161.242 268 161.25ZM268 159.75C266.254 159.749 264.563 160.356 263.217 161.468C261.871 162.579 260.955 164.126 260.627 165.84C259.246 166.09 258.008 166.848 257.157 167.964C256.306 169.08 255.902 170.474 256.026 171.872C256.15 173.27 256.793 174.572 257.827 175.52C258.862 176.469 260.214 176.997 261.617 177H274.367C275.771 176.997 277.123 176.469 278.157 175.52C279.192 174.572 279.834 173.27 279.958 171.872C280.082 170.474 279.679 169.08 278.828 167.964C277.976 166.848 276.739 166.09 275.357 165.84C275.075 164.365 274.356 163.009 273.295 161.948C272.233 160.886 270.877 160.167 269.402 159.885C268.94 159.797 268.47 159.752 268 159.75Z" fill="black"/>
</g>
<rect x="288.5" y="240.5" width="959" height="287" fill="white" fill-opacity="0.01" style="mix-blend-mode:multiply"/>
<rect x="288.5" y="240.5" width="959" height="287" stroke="#0F62FE"/>
<rect x="289" y="241" width="958" height="286" fill="white"/>
<rect x="289" y="241" width="958" height="286" fill="#EDF5FF"/>
<g clip-path="url(#clip1_224_4952)">
<path d="M346.996 265.234V269H345.148V259.228H349.558C351.336 259.228 352.442 260.404 352.442 262.252C352.442 263.596 351.826 264.618 350.622 265.024L352.624 269H350.566L348.746 265.234H346.996ZM346.996 263.68H349.376C350.09 263.68 350.524 263.288 350.524 262.574V261.93C350.524 261.216 350.09 260.838 349.376 260.838H346.996V263.68ZM357.242 269.168C355.086 269.168 353.798 267.67 353.798 265.332C353.798 263.022 355.044 261.524 357.186 261.524C359.468 261.524 360.518 263.204 360.518 265.206V265.794H355.66V265.976C355.66 267.026 356.262 267.74 357.438 267.74C358.32 267.74 358.852 267.32 359.3 266.746L360.266 267.824C359.664 268.65 358.6 269.168 357.242 269.168ZM357.214 262.868C356.276 262.868 355.66 263.568 355.66 264.576V264.688H358.656V264.562C358.656 263.554 358.138 262.868 357.214 262.868ZM368.848 269.616C368.848 271.142 367.812 271.968 365.012 271.968C362.548 271.968 361.61 271.324 361.61 270.246C361.61 269.434 362.1 268.972 362.912 268.846V268.692C362.31 268.538 361.974 268.062 361.974 267.474C361.974 266.718 362.618 266.34 363.318 266.186V266.13C362.436 265.724 361.988 264.968 361.988 264.002C361.988 262.518 363.038 261.524 365.012 261.524C365.46 261.524 365.922 261.58 366.286 261.706V261.468C366.286 260.754 366.65 260.404 367.322 260.404H368.456V261.776H366.902V261.972C367.658 262.392 368.036 263.106 368.036 264.002C368.036 265.472 367 266.452 365.012 266.452C364.592 266.452 364.214 266.41 363.892 266.326C363.612 266.452 363.374 266.662 363.374 266.984C363.374 267.348 363.682 267.53 364.326 267.53H366.286C368.078 267.53 368.848 268.3 368.848 269.616ZM367.168 269.826C367.168 269.364 366.832 269.084 365.922 269.084H363.43C363.164 269.28 363.052 269.546 363.052 269.84C363.052 270.4 363.472 270.736 364.592 270.736H365.488C366.65 270.736 367.168 270.442 367.168 269.826ZM365.012 265.234C365.866 265.234 366.328 264.842 366.328 264.114V263.876C366.328 263.134 365.866 262.756 365.012 262.756C364.158 262.756 363.696 263.134 363.696 263.876V264.114C363.696 264.842 364.158 265.234 365.012 265.234ZM370.939 260.628C370.197 260.628 369.889 260.25 369.889 259.732V259.452C369.889 258.934 370.197 258.556 370.939 258.556C371.667 258.556 371.989 258.934 371.989 259.452V259.732C371.989 260.25 371.667 260.628 370.939 260.628ZM370.043 269V261.692H371.835V269H370.043ZM376.97 269.168C374.884 269.168 373.582 267.684 373.582 265.332C373.582 262.994 374.884 261.524 376.97 261.524C379.07 261.524 380.372 262.994 380.372 265.332C380.372 267.684 379.07 269.168 376.97 269.168ZM376.97 267.726C377.908 267.726 378.496 267.124 378.496 266.018V264.66C378.496 263.568 377.908 262.966 376.97 262.966C376.046 262.966 375.458 263.568 375.458 264.66V266.018C375.458 267.124 376.046 267.726 376.97 267.726ZM383.913 269H382.121V261.692H383.913V262.91H383.983C384.277 262.126 384.893 261.524 386.027 261.524C387.525 261.524 388.365 262.56 388.365 264.38V269H386.573V264.562C386.573 263.526 386.223 262.994 385.369 262.994C384.627 262.994 383.913 263.386 383.913 264.17V269Z" fill="black"/>
<rect width="24" height="24" transform="translate(304 252)" fill="white" fill-opacity="0.01" style="mix-blend-mode:multiply"/>
<path d="M316 265.5C315.258 265.5 314.533 265.28 313.917 264.868C313.3 264.456 312.819 263.87 312.535 263.185C312.252 262.5 312.177 261.746 312.322 261.018C312.467 260.291 312.824 259.623 313.348 259.098C313.873 258.574 314.541 258.217 315.268 258.072C315.996 257.927 316.75 258.002 317.435 258.285C318.12 258.569 318.706 259.05 319.118 259.667C319.53 260.283 319.75 261.008 319.75 261.75C319.749 262.744 319.353 263.697 318.65 264.4C317.947 265.103 316.994 265.499 316 265.5ZM316 259.5C315.555 259.5 315.12 259.632 314.75 259.879C314.38 260.126 314.092 260.478 313.921 260.889C313.751 261.3 313.706 261.752 313.793 262.189C313.88 262.625 314.094 263.026 314.409 263.341C314.724 263.656 315.125 263.87 315.561 263.957C315.998 264.044 316.45 263.999 316.861 263.829C317.272 263.658 317.624 263.37 317.871 263C318.118 262.63 318.25 262.195 318.25 261.75C318.249 261.153 318.012 260.582 317.59 260.16C317.168 259.738 316.597 259.501 316 259.5Z" fill="black"/>
<path d="M316 274.5L309.673 267.038C309.637 266.996 309.412 266.7 309.412 266.7C308.331 265.276 307.747 263.537 307.75 261.75C307.75 259.562 308.619 257.464 310.166 255.916C311.714 254.369 313.812 253.5 316 253.5C318.188 253.5 320.286 254.369 321.834 255.916C323.381 257.464 324.25 259.562 324.25 261.75C324.253 263.537 323.669 265.275 322.589 266.698L322.588 266.7C322.588 266.7 322.363 266.996 322.329 267.035L316 274.5ZM310.609 265.796C310.609 265.796 310.784 266.027 310.824 266.077L316 272.181L321.183 266.068C321.215 266.027 321.392 265.794 321.392 265.794C322.275 264.631 322.752 263.21 322.75 261.75C322.75 259.96 322.039 258.243 320.773 256.977C319.507 255.711 317.79 255 316 255C314.21 255 312.493 255.711 311.227 256.977C309.961 258.243 309.25 259.96 309.25 261.75C309.248 263.211 309.726 264.632 310.609 265.796Z" fill="black"/>
<line x1="290" y1="240" x2="290" y2="288" stroke="#0F62FE" stroke-width="4"/>
</g>
<rect x="288.5" y="576.5" width="959" height="287" fill="white" fill-opacity="0.01" style="mix-blend-mode:multiply"/>
<rect x="288.5" y="576.5" width="959" height="287" stroke="#0F62FE"/>
<rect x="289" y="577" width="958" height="286" fill="white"/>
<rect x="289" y="577" width="958" height="286" fill="#EDF5FF"/>
<g clip-path="url(#clip2_224_4952)">
<path d="M346.996 601.234V605H345.148V595.228H349.558C351.336 595.228 352.442 596.404 352.442 598.252C352.442 599.596 351.826 600.618 350.622 601.024L352.624 605H350.566L348.746 601.234H346.996ZM346.996 599.68H349.376C350.09 599.68 350.524 599.288 350.524 598.574V597.93C350.524 597.216 350.09 596.838 349.376 596.838H346.996V599.68ZM357.242 605.168C355.086 605.168 353.798 603.67 353.798 601.332C353.798 599.022 355.044 597.524 357.186 597.524C359.468 597.524 360.518 599.204 360.518 601.206V601.794H355.66V601.976C355.66 603.026 356.262 603.74 357.438 603.74C358.32 603.74 358.852 603.32 359.3 602.746L360.266 603.824C359.664 604.65 358.6 605.168 357.242 605.168ZM357.214 598.868C356.276 598.868 355.66 599.568 355.66 600.576V600.688H358.656V600.562C358.656 599.554 358.138 598.868 357.214 598.868ZM368.848 605.616C368.848 607.142 367.812 607.968 365.012 607.968C362.548 607.968 361.61 607.324 361.61 606.246C361.61 605.434 362.1 604.972 362.912 604.846V604.692C362.31 604.538 361.974 604.062 361.974 603.474C361.974 602.718 362.618 602.34 363.318 602.186V602.13C362.436 601.724 361.988 600.968 361.988 600.002C361.988 598.518 363.038 597.524 365.012 597.524C365.46 597.524 365.922 597.58 366.286 597.706V597.468C366.286 596.754 366.65 596.404 367.322 596.404H368.456V597.776H366.902V597.972C367.658 598.392 368.036 599.106 368.036 600.002C368.036 601.472 367 602.452 365.012 602.452C364.592 602.452 364.214 602.41 363.892 602.326C363.612 602.452 363.374 602.662 363.374 602.984C363.374 603.348 363.682 603.53 364.326 603.53H366.286C368.078 603.53 368.848 604.3 368.848 605.616ZM367.168 605.826C367.168 605.364 366.832 605.084 365.922 605.084H363.43C363.164 605.28 363.052 605.546 363.052 605.84C363.052 606.4 363.472 606.736 364.592 606.736H365.488C366.65 606.736 367.168 606.442 367.168 605.826ZM365.012 601.234C365.866 601.234 366.328 600.842 366.328 600.114V599.876C366.328 599.134 365.866 598.756 365.012 598.756C364.158 598.756 363.696 599.134 363.696 599.876V600.114C363.696 600.842 364.158 601.234 365.012 601.234ZM370.939 596.628C370.197 596.628 369.889 596.25 369.889 595.732V595.452C369.889 594.934 370.197 594.556 370.939 594.556C371.667 594.556 371.989 594.934 371.989 595.452V595.732C371.989 596.25 371.667 596.628 370.939 596.628ZM370.043 605V597.692H371.835V605H370.043ZM376.97 605.168C374.884 605.168 373.582 603.684 373.582 601.332C373.582 598.994 374.884 597.524 376.97 597.524C379.07 597.524 380.372 598.994 380.372 601.332C380.372 603.684 379.07 605.168 376.97 605.168ZM376.97 603.726C377.908 603.726 378.496 603.124 378.496 602.018V600.66C378.496 599.568 377.908 598.966 376.97 598.966C376.046 598.966 375.458 599.568 375.458 600.66V602.018C375.458 603.124 376.046 603.726 376.97 603.726ZM383.913 605H382.121V597.692H383.913V598.91H383.983C384.277 598.126 384.893 597.524 386.027 597.524C387.525 597.524 388.365 598.56 388.365 600.38V605H386.573V600.562C386.573 599.526 386.223 598.994 385.369 598.994C384.627 598.994 383.913 599.386 383.913 600.17V605Z" fill="black"/>
<rect width="24" height="24" transform="translate(304 588)" fill="white" fill-opacity="0.01" style="mix-blend-mode:multiply"/>
<path d="M316 601.5C315.258 601.5 314.533 601.28 313.917 600.868C313.3 600.456 312.819 599.87 312.535 599.185C312.252 598.5 312.177 597.746 312.322 597.018C312.467 596.291 312.824 595.623 313.348 595.098C313.873 594.574 314.541 594.217 315.268 594.072C315.996 593.927 316.75 594.002 317.435 594.285C318.12 594.569 318.706 595.05 319.118 595.667C319.53 596.283 319.75 597.008 319.75 597.75C319.749 598.744 319.353 599.697 318.65 600.4C317.947 601.103 316.994 601.499 316 601.5ZM316 595.5C315.555 595.5 315.12 595.632 314.75 595.879C314.38 596.126 314.092 596.478 313.921 596.889C313.751 597.3 313.706 597.752 313.793 598.189C313.88 598.625 314.094 599.026 314.409 599.341C314.724 599.656 315.125 599.87 315.561 599.957C315.998 600.044 316.45 599.999 316.861 599.829C317.272 599.658 317.624 599.37 317.871 599C318.118 598.63 318.25 598.195 318.25 597.75C318.249 597.153 318.012 596.582 317.59 596.16C317.168 595.738 316.597 595.501 316 595.5Z" fill="black"/>
<path d="M316 610.5L309.673 603.038C309.637 602.996 309.412 602.7 309.412 602.7C308.331 601.276 307.747 599.537 307.75 597.75C307.75 595.562 308.619 593.464 310.166 591.916C311.714 590.369 313.812 589.5 316 589.5C318.188 589.5 320.286 590.369 321.834 591.916C323.381 593.464 324.25 595.562 324.25 597.75C324.253 599.537 323.669 601.275 322.589 602.698L322.588 602.7C322.588 602.7 322.363 602.996 322.329 603.035L316 610.5ZM310.609 601.796C310.609 601.796 310.784 602.027 310.824 602.077L316 608.181L321.183 602.068C321.215 602.027 321.392 601.794 321.392 601.794C322.275 600.631 322.752 599.21 322.75 597.75C322.75 595.96 322.039 594.243 320.773 592.977C319.507 591.711 317.79 591 316 591C314.21 591 312.493 591.711 311.227 592.977C309.961 594.243 309.25 595.96 309.25 597.75C309.248 599.211 309.726 600.632 310.609 601.796Z" fill="black"/>
<line x1="290" y1="576" x2="290" y2="624" stroke="#0F62FE" stroke-width="4"/>
</g>
<rect width="208" height="192" transform="translate(304 320)" fill="white"/>
<rect x="304" y="320" width="208" height="192" fill="white"/>
<g clip-path="url(#clip3_224_4952)">
<path d="M367.854 347.362V349H360.532V347.348L365.586 340.866H360.784V339.228H367.714V340.88L362.646 347.362H367.854ZM372.407 349.168C370.32 349.168 369.018 347.684 369.018 345.332C369.018 342.994 370.32 341.524 372.407 341.524C374.507 341.524 375.809 342.994 375.809 345.332C375.809 347.684 374.507 349.168 372.407 349.168ZM372.407 347.726C373.345 347.726 373.933 347.124 373.933 346.018V344.66C373.933 343.568 373.345 342.966 372.407 342.966C371.482 342.966 370.894 343.568 370.894 344.66V346.018C370.894 347.124 371.482 347.726 372.407 347.726ZM379.349 349H377.557V341.692H379.349V342.91H379.419C379.713 342.126 380.329 341.524 381.463 341.524C382.961 341.524 383.801 342.56 383.801 344.38V349H382.009V344.562C382.009 343.526 381.659 342.994 380.805 342.994C380.063 342.994 379.349 343.386 379.349 344.17V349ZM388.902 349.168C386.746 349.168 385.458 347.67 385.458 345.332C385.458 343.022 386.704 341.524 388.846 341.524C391.128 341.524 392.178 343.204 392.178 345.206V345.794H387.32V345.976C387.32 347.026 387.922 347.74 389.098 347.74C389.98 347.74 390.512 347.32 390.96 346.746L391.926 347.824C391.324 348.65 390.26 349.168 388.902 349.168ZM388.874 342.868C387.936 342.868 387.32 343.568 387.32 344.576V344.688H390.316V344.562C390.316 343.554 389.798 342.868 388.874 342.868ZM404.355 349H397.621V347.502H400.309V340.558H400.183L398.055 343.078L396.907 342.112L399.329 339.228H402.115V347.502H404.355V349Z" fill="black"/>
<rect width="24" height="24" transform="translate(320 332)" fill="white" fill-opacity="0.01" style="mix-blend-mode:multiply"/>
<path d="M341 339.5H337.25V336.5C337.25 336.102 337.091 335.721 336.81 335.44C336.529 335.159 336.148 335 335.75 335H328.25C327.852 335 327.471 335.159 327.19 335.44C326.909 335.721 326.75 336.102 326.75 336.5V339.5H323C322.602 339.5 322.221 339.659 321.94 339.94C321.659 340.221 321.5 340.602 321.5 341V353C321.5 353.398 321.659 353.779 321.94 354.06C322.221 354.341 322.602 354.5 323 354.5H341C341.398 354.5 341.779 354.341 342.06 354.06C342.341 353.779 342.5 353.398 342.5 353V341C342.5 340.602 342.341 340.221 342.06 339.94C341.779 339.659 341.398 339.5 341 339.5ZM323 353V341H326.75V342.5H325.25V344H326.75V345.5H325.25V347H326.75V348.5H325.25V350H326.75V353H323ZM335.75 353H328.25V336.5H335.75V353ZM341 353H337.25V350H338.75V348.5H337.25V347H338.75V345.5H337.25V344H338.75V342.5H337.25V341H341V353Z" fill="black"/>
<path d="M333.5 338H330.5V339.5H333.5V338Z" fill="black"/>
<path d="M333.5 341H330.5V342.5H333.5V341Z" fill="black"/>
<path d="M333.5 344H330.5V345.5H333.5V344Z" fill="black"/>
</g>
<path d="M310 320V320.5H314V320H318V320.5H322V320H326V320.5H330V320H334V320.5H338V320H342V320.5H346V320H350V320.5H354V320H358V320.5H362V320H366V320.5H370V320H374V320.5H378V320H382V320.5H386V320H390V320.5H394V320H398V320.5H402V320H406V320.5H410V320H414V320.5H418V320H422V320.5H426V320H430V320.5H434V320H438V320.5H442V320H446V320.5H450V320H454V320.5H458V320H462V320.5H466V320H470V320.5H474V320H478V320.5H482V320H486V320.5H490V320H494V320.5H498V320H502V320.5H506V320H510V320.5H511.5V322H512V326H511.5V330H512V334H511.5V338H512V342H511.5V346H512V350H511.5V354H512V358H511.5V362H512V366H511.5V370H512V374H511.5V378H512V382H511.5V386H512V390H511.5V394H512V398H511.5V402H512V406H511.5V410H512V414H511.5V418H512V422H511.5V426H512V430H511.5V434H512V438H511.5V442H512V446H511.5V450H512V454H511.5V458H512V462H511.5V466H512V470H511.5V474H512V478H511.5V482H512V486H511.5V490H512V494H511.5V498H512V502H511.5V506H512V510H511.5V511.5H510V512H506V511.5H502V512H498V511.5H494V512H490V511.5H486V512H482V511.5H478V512H474V511.5H470V512H466V511.5H462V512H458V511.5H454V512H450V511.5H446V512H442V511.5H438V512H434V511.5H430V512H426V511.5H422V512H418V511.5H414V512H410V511.5H406V512H402V511.5H398V512H394V511.5H390V512H386V511.5H382V512H378V511.5H374V512H370V511.5H366V512H362V511.5H358V512H354V511.5H350V512H346V511.5H342V512H338V511.5H334V512H330V511.5H326V512H322V511.5H318V512H314V511.5H310V512H306V511.5H304.5V510H304V506H304.5V502H304V498H304.5V494H304V490H304.5V486H304V482H304.5V478H304V474H304.5V470H304V466H304.5V462H304V458H304.5V454H304V450H304.5V446H304V442H304.5V438H304V434H304.5V430H304V426H304.5V422H304V418H304.5V414H304V410H304.5V406H304V402H304.5V398H304V394H304.5V390H304V386H304.5V382H304V378H304.5V374H304V370H304.5V366H304V362H304.5V358H304V354H304.5V350H304V346H304.5V342H304V338H304.5V334H304V330H304.5V326H304V322H304.5V320.5H306V320H310Z" stroke="black" stroke-dasharray="4 4"/>
<rect width="80" height="80" transform="translate(368 376)" fill="white" fill-opacity="0.01" style="mix-blend-mode:multiply"/>
<path d="M392 379H424C428.418 379 432 382.582 432 387V419C432 423.418 428.418 427 424 427H392C387.582 427 384 423.418 384 419V387C384 382.582 387.582 379 392 379Z" fill="#0F62FE"/>
<rect width="24" height="24" transform="translate(396 391)" fill="white" fill-opacity="0.01"/>
<path d="M413.235 412.656C410.199 412.656 409.044 411.863 409.044 410.535C409.035 410.316 409.07 410.098 409.146 409.892C409.222 409.687 409.337 409.498 409.487 409.338C409.636 409.178 409.815 409.048 410.014 408.958C410.214 408.867 410.429 408.817 410.648 408.81V408.62C410.31 408.545 410.01 408.353 409.799 408.079C409.588 407.805 409.479 407.466 409.492 407.12C409.492 406.189 410.285 405.723 411.148 405.533V405.464C410.641 405.246 410.212 404.878 409.919 404.409C409.627 403.941 409.484 403.395 409.509 402.843C409.509 401.015 410.803 399.79 413.235 399.79C413.767 399.781 414.296 399.857 414.804 400.015V399.721C414.778 399.546 414.793 399.368 414.848 399.199C414.902 399.031 414.994 398.877 415.118 398.75C415.241 398.624 415.393 398.527 415.559 398.468C415.726 398.409 415.905 398.389 416.08 398.411H417.477V400.101H415.563V400.342C416.007 400.586 416.374 400.949 416.621 401.392C416.868 401.834 416.985 402.337 416.96 402.843C416.96 404.654 415.683 405.861 413.235 405.861C412.77 405.868 412.306 405.815 411.855 405.706C411.68 405.762 411.525 405.869 411.412 406.014C411.298 406.158 411.23 406.333 411.217 406.516C411.217 406.965 411.596 407.189 412.389 407.189H414.804C417.011 407.189 417.96 408.138 417.96 409.759C417.96 411.639 416.684 412.656 413.235 412.656ZM414.356 409.103H411.286C411.137 409.208 411.017 409.348 410.936 409.511C410.855 409.673 410.815 409.853 410.82 410.035C410.82 410.725 411.337 411.139 412.717 411.139H413.821C415.253 411.139 415.891 410.776 415.891 410.018C415.89 409.448 415.477 409.103 414.356 409.103ZM414.856 402.981V402.688C414.856 401.774 414.287 401.308 413.235 401.308C412.183 401.308 411.613 401.773 411.613 402.688V402.981C411.613 403.878 412.182 404.361 413.235 404.361C414.287 404.361 414.856 403.877 414.856 402.981Z" fill="white"/>
<path d="M399.452 409V396.962H404.867C407.092 396.962 408.437 398.462 408.437 400.688C408.437 402.93 407.092 404.413 404.867 404.413H401.729V409H399.452ZM401.729 402.446H404.661C404.847 402.469 405.037 402.45 405.215 402.39C405.393 402.33 405.556 402.231 405.691 402.101C405.827 401.971 405.931 401.812 405.998 401.636C406.064 401.46 406.09 401.271 406.075 401.084V400.291C406.09 400.104 406.063 399.916 405.996 399.742C405.93 399.567 405.825 399.409 405.689 399.28C405.554 399.151 405.391 399.054 405.213 398.996C405.035 398.938 404.846 398.921 404.661 398.945H401.729V402.446Z" fill="white"/>
<path d="M392.202 449H386.504V439.228H388.352V447.362H392.202V449ZM396.67 449.168C394.514 449.168 393.226 447.67 393.226 445.332C393.226 443.022 394.472 441.524 396.614 441.524C398.896 441.524 399.946 443.204 399.946 445.206V445.794H395.088V445.976C395.088 447.026 395.69 447.74 396.866 447.74C397.748 447.74 398.28 447.32 398.728 446.746L399.694 447.824C399.092 448.65 398.028 449.168 396.67 449.168ZM396.642 442.868C395.704 442.868 395.088 443.568 395.088 444.576V444.688H398.084V444.562C398.084 443.554 397.566 442.868 396.642 442.868ZM403.489 449.168C402.005 449.168 401.165 448.314 401.165 447.012C401.165 445.514 402.299 444.772 404.287 444.772H405.533V444.24C405.533 443.428 405.127 442.952 404.175 442.952C403.335 442.952 402.859 443.372 402.509 443.876L401.445 442.924C401.977 442.084 402.831 441.524 404.301 441.524C406.275 441.524 407.325 442.462 407.325 444.128V447.572H408.053V449H407.059C406.289 449 405.813 448.496 405.701 447.74H405.617C405.379 448.678 404.581 449.168 403.489 449.168ZM404.091 447.866C404.889 447.866 405.533 447.502 405.533 446.816V445.85H404.385C403.447 445.85 402.985 446.172 402.985 446.746V446.984C402.985 447.572 403.391 447.866 404.091 447.866ZM414.199 449V447.782H414.129C413.863 448.608 413.079 449.168 412.113 449.168C410.279 449.168 409.257 447.782 409.257 445.332C409.257 442.896 410.279 441.524 412.113 441.524C413.079 441.524 413.877 442.056 414.129 442.896H414.199V438.64H415.991V449H414.199ZM412.687 447.684C413.541 447.684 414.199 447.25 414.199 446.494V444.17C414.199 443.456 413.541 442.994 412.687 442.994C411.763 442.994 411.133 443.68 411.133 444.716V445.976C411.133 447.012 411.763 447.684 412.687 447.684ZM421.171 449.168C419.015 449.168 417.727 447.67 417.727 445.332C417.727 443.022 418.973 441.524 421.115 441.524C423.397 441.524 424.447 443.204 424.447 445.206V445.794H419.589V445.976C419.589 447.026 420.191 447.74 421.367 447.74C422.249 447.74 422.781 447.32 423.229 446.746L424.195 447.824C423.593 448.65 422.529 449.168 421.171 449.168ZM421.143 442.868C420.205 442.868 419.589 443.568 419.589 444.576V444.688H422.585V444.562C422.585 443.554 422.067 442.868 421.143 442.868ZM427.976 449H426.184V441.692H427.976V443.204H428.046C428.228 442.434 428.816 441.692 429.978 441.692H430.37V443.386H429.81C428.606 443.386 427.976 443.722 427.976 444.52V449Z" fill="black"/>
<rect width="208" height="192" transform="translate(528 320)" fill="white"/>
<rect x="528" y="320" width="208" height="192" fill="white"/>
<g clip-path="url(#clip4_224_4952)">
<path d="M591.854 347.362V349H584.532V347.348L589.586 340.866H584.784V339.228H591.714V340.88L586.646 347.362H591.854ZM596.407 349.168C594.32 349.168 593.018 347.684 593.018 345.332C593.018 342.994 594.32 341.524 596.407 341.524C598.507 341.524 599.809 342.994 599.809 345.332C599.809 347.684 598.507 349.168 596.407 349.168ZM596.407 347.726C597.345 347.726 597.933 347.124 597.933 346.018V344.66C597.933 343.568 597.345 342.966 596.407 342.966C595.482 342.966 594.894 343.568 594.894 344.66V346.018C594.894 347.124 595.482 347.726 596.407 347.726ZM603.349 349H601.557V341.692H603.349V342.91H603.419C603.713 342.126 604.329 341.524 605.463 341.524C606.961 341.524 607.801 342.56 607.801 344.38V349H606.009V344.562C606.009 343.526 605.659 342.994 604.805 342.994C604.063 342.994 603.349 343.386 603.349 344.17V349ZM612.902 349.168C610.746 349.168 609.458 347.67 609.458 345.332C609.458 343.022 610.704 341.524 612.846 341.524C615.128 341.524 616.178 343.204 616.178 345.206V345.794H611.32V345.976C611.32 347.026 611.922 347.74 613.098 347.74C613.98 347.74 614.512 347.32 614.96 346.746L615.926 347.824C615.324 348.65 614.26 349.168 612.902 349.168ZM612.874 342.868C611.936 342.868 611.32 343.568 611.32 344.576V344.688H614.316V344.562C614.316 343.554 613.798 342.868 612.874 342.868ZM627.991 347.446V349H621.215V347.292L624.281 344.604C625.317 343.694 625.793 343.022 625.793 342.168V341.986C625.793 341.132 625.149 340.656 624.351 340.656C623.343 340.656 622.867 341.314 622.643 342.112L621.047 341.496C621.467 340.194 622.517 339.06 624.505 339.06C626.563 339.06 627.739 340.292 627.739 341.972C627.739 343.596 626.633 344.632 625.275 345.752L623.217 347.446H627.991Z" fill="black"/>
<rect width="24" height="24" transform="translate(544 332)" fill="white" fill-opacity="0.01" style="mix-blend-mode:multiply"/>
<path d="M565 339.5H561.25V336.5C561.25 336.102 561.091 335.721 560.81 335.44C560.529 335.159 560.148 335 559.75 335H552.25C551.852 335 551.471 335.159 551.19 335.44C550.909 335.721 550.75 336.102 550.75 336.5V339.5H547C546.602 339.5 546.221 339.659 545.94 339.94C545.659 340.221 545.5 340.602 545.5 341V353C545.5 353.398 545.659 353.779 545.94 354.06C546.221 354.341 546.602 354.5 547 354.5H565C565.398 354.5 565.779 354.341 566.06 354.06C566.341 353.779 566.5 353.398 566.5 353V341C566.5 340.602 566.341 340.221 566.06 339.94C565.779 339.659 565.398 339.5 565 339.5ZM547 353V341H550.75V342.5H549.25V344H550.75V345.5H549.25V347H550.75V348.5H549.25V350H550.75V353H547ZM559.75 353H552.25V336.5H559.75V353ZM565 353H561.25V350H562.75V348.5H561.25V347H562.75V345.5H561.25V344H562.75V342.5H561.25V341H565V353Z" fill="black"/>
<path d="M557.5 338H554.5V339.5H557.5V338Z" fill="black"/>
<path d="M557.5 341H554.5V342.5H557.5V341Z" fill="black"/>
<path d="M557.5 344H554.5V345.5H557.5V344Z" fill="black"/>
</g>
<path d="M534 320V320.5H538V320H542V320.5H546V320H550V320.5H554V320H558V320.5H562V320H566V320.5H570V320H574V320.5H578V320H582V320.5H586V320H590V320.5H594V320H598V320.5H602V320H606V320.5H610V320H614V320.5H618V320H622V320.5H626V320H630V320.5H634V320H638V320.5H642V320H646V320.5H650V320H654V320.5H658V320H662V320.5H666V320H670V320.5H674V320H678V320.5H682V320H686V320.5H690V320H694V320.5H698V320H702V320.5H706V320H710V320.5H714V320H718V320.5H722V320H726V320.5H730V320H734V320.5H735.5V322H736V326H735.5V330H736V334H735.5V338H736V342H735.5V346H736V350H735.5V354H736V358H735.5V362H736V366H735.5V370H736V374H735.5V378H736V382H735.5V386H736V390H735.5V394H736V398H735.5V402H736V406H735.5V410H736V414H735.5V418H736V422H735.5V426H736V430H735.5V434H736V438H735.5V442H736V446H735.5V450H736V454H735.5V458H736V462H735.5V466H736V470H735.5V474H736V478H735.5V482H736V486H735.5V490H736V494H735.5V498H736V502H735.5V506H736V510H735.5V511.5H734V512H730V511.5H726V512H722V511.5H718V512H714V511.5H710V512H706V511.5H702V512H698V511.5H694V512H690V511.5H686V512H682V511.5H678V512H674V511.5H670V512H666V511.5H662V512H658V511.5H654V512H650V511.5H646V512H642V511.5H638V512H634V511.5H630V512H626V511.5H622V512H618V511.5H614V512H610V511.5H606V512H602V511.5H598V512H594V511.5H590V512H586V511.5H582V512H578V511.5H574V512H570V511.5H566V512H562V511.5H558V512H554V511.5H550V512H546V511.5H542V512H538V511.5H534V512H530V511.5H528.5V510H528V506H528.5V502H528V498H528.5V494H528V490H528.5V486H528V482H528.5V478H528V474H528.5V470H528V466H528.5V462H528V458H528.5V454H528V450H528.5V446H528V442H528.5V438H528V434H528.5V430H528V426H528.5V422H528V418H528.5V414H528V410H528.5V406H528V402H528.5V398H528V394H528.5V390H528V386H528.5V382H528V378H528.5V374H528V370H528.5V366H528V362H528.5V358H528V354H528.5V350H528V346H528.5V342H528V338H528.5V334H528V330H528.5V326H528V322H528.5V320.5H530V320H534Z" stroke="black" stroke-dasharray="4 4"/>
<rect width="80" height="80" transform="translate(592 376)" fill="white" fill-opacity="0.01" style="mix-blend-mode:multiply"/>
<path d="M616 379H648C652.418 379 656 382.582 656 387V419C656 423.418 652.418 427 648 427H616C611.582 427 608 423.418 608 419V387C608 382.582 611.582 379 616 379Z" fill="#0F62FE"/>
<rect width="24" height="24" transform="translate(620 391)" fill="white" fill-opacity="0.01"/>
<path d="M637.235 412.656C634.199 412.656 633.044 411.863 633.044 410.535C633.035 410.316 633.07 410.098 633.146 409.892C633.222 409.687 633.337 409.498 633.487 409.338C633.636 409.178 633.815 409.048 634.014 408.958C634.214 408.867 634.429 408.817 634.648 408.81V408.62C634.31 408.545 634.01 408.353 633.799 408.079C633.588 407.805 633.479 407.466 633.492 407.12C633.492 406.189 634.285 405.723 635.148 405.533V405.464C634.641 405.246 634.212 404.878 633.919 404.409C633.627 403.941 633.484 403.395 633.509 402.843C633.509 401.015 634.803 399.79 637.235 399.79C637.767 399.781 638.296 399.857 638.804 400.015V399.721C638.778 399.546 638.793 399.368 638.848 399.199C638.902 399.031 638.994 398.877 639.118 398.75C639.241 398.624 639.393 398.527 639.559 398.468C639.726 398.409 639.905 398.389 640.08 398.411H641.477V400.101H639.563V400.342C640.007 400.586 640.374 400.949 640.621 401.392C640.868 401.834 640.985 402.337 640.96 402.843C640.96 404.654 639.683 405.861 637.235 405.861C636.77 405.868 636.306 405.815 635.855 405.706C635.68 405.762 635.525 405.869 635.412 406.014C635.298 406.158 635.23 406.333 635.217 406.516C635.217 406.965 635.596 407.189 636.389 407.189H638.804C641.011 407.189 641.96 408.138 641.96 409.759C641.96 411.639 640.684 412.656 637.235 412.656ZM638.356 409.103H635.286C635.137 409.208 635.017 409.348 634.936 409.511C634.855 409.673 634.815 409.853 634.82 410.035C634.82 410.725 635.337 411.139 636.717 411.139H637.821C639.253 411.139 639.891 410.776 639.891 410.018C639.89 409.448 639.477 409.103 638.356 409.103ZM638.856 402.981V402.688C638.856 401.774 638.287 401.308 637.235 401.308C636.183 401.308 635.613 401.773 635.613 402.688V402.981C635.613 403.878 636.182 404.361 637.235 404.361C638.287 404.361 638.856 403.877 638.856 402.981Z" fill="white"/>
<path d="M623.452 409V396.962H628.867C631.092 396.962 632.437 398.462 632.437 400.688C632.437 402.93 631.092 404.413 628.867 404.413H625.729V409H623.452ZM625.729 402.446H628.661C628.847 402.469 629.037 402.45 629.215 402.39C629.393 402.33 629.556 402.231 629.691 402.101C629.827 401.971 629.931 401.812 629.998 401.636C630.064 401.46 630.09 401.271 630.075 401.084V400.291C630.09 400.104 630.063 399.916 629.996 399.742C629.93 399.567 629.825 399.409 629.689 399.28C629.554 399.151 629.391 399.054 629.213 398.996C629.035 398.938 628.846 398.921 628.661 398.945H625.729V402.446Z" fill="white"/>
<path d="M606.388 449H604.54V439.228H610.826V440.866H606.388V443.232H610.252V444.87H606.388V449ZM615.142 449.168C613.056 449.168 611.754 447.684 611.754 445.332C611.754 442.994 613.056 441.524 615.142 441.524C617.242 441.524 618.544 442.994 618.544 445.332C618.544 447.684 617.242 449.168 615.142 449.168ZM615.142 447.726C616.08 447.726 616.668 447.124 616.668 446.018V444.66C616.668 443.568 616.08 442.966 615.142 442.966C614.218 442.966 613.63 443.568 613.63 444.66V446.018C613.63 447.124 614.218 447.726 615.142 447.726ZM623.051 449H622.085C620.867 449 620.293 448.356 620.293 447.236V438.64H622.085V447.572H623.051V449ZM627.231 449H626.265C625.047 449 624.473 448.356 624.473 447.236V438.64H626.265V447.572H627.231V449ZM631.646 449.168C629.56 449.168 628.258 447.684 628.258 445.332C628.258 442.994 629.56 441.524 631.646 441.524C633.746 441.524 635.048 442.994 635.048 445.332C635.048 447.684 633.746 449.168 631.646 449.168ZM631.646 447.726C632.584 447.726 633.172 447.124 633.172 446.018V444.66C633.172 443.568 632.584 442.966 631.646 442.966C630.722 442.966 630.134 443.568 630.134 444.66V446.018C630.134 447.124 630.722 447.726 631.646 447.726ZM637.975 449L635.959 441.692H637.681L638.423 444.702L638.997 447.208H639.053L639.725 444.702L640.579 441.692H642.203L643.085 444.702L643.771 447.208H643.827L644.401 444.702L645.129 441.692H646.795L644.793 449H642.861L641.923 445.78L641.377 443.792H641.335L640.803 445.78L639.879 449H637.975ZM651.135 449.168C648.979 449.168 647.691 447.67 647.691 445.332C647.691 443.022 648.937 441.524 651.079 441.524C653.361 441.524 654.411 443.204 654.411 445.206V445.794H649.553V445.976C649.553 447.026 650.155 447.74 651.331 447.74C652.213 447.74 652.745 447.32 653.193 446.746L654.159 447.824C653.557 448.65 652.493 449.168 651.135 449.168ZM651.107 442.868C650.169 442.868 649.553 443.568 649.553 444.576V444.688H652.549V444.562C652.549 443.554 652.031 442.868 651.107 442.868ZM657.94 449H656.148V441.692H657.94V443.204H658.01C658.192 442.434 658.78 441.692 659.942 441.692H660.334V443.386H659.774C658.57 443.386 657.94 443.722 657.94 444.52V449Z" fill="black"/>
<rect width="208" height="192" transform="translate(752 320)" fill="white"/>
<rect x="752" y="320" width="208" height="192" fill="white"/>
<g clip-path="url(#clip5_224_4952)">
<path d="M815.854 347.362V349H808.532V347.348L813.586 340.866H808.784V339.228H815.714V340.88L810.646 347.362H815.854ZM820.407 349.168C818.32 349.168 817.018 347.684 817.018 345.332C817.018 342.994 818.32 341.524 820.407 341.524C822.507 341.524 823.809 342.994 823.809 345.332C823.809 347.684 822.507 349.168 820.407 349.168ZM820.407 347.726C821.345 347.726 821.933 347.124 821.933 346.018V344.66C821.933 343.568 821.345 342.966 820.407 342.966C819.482 342.966 818.894 343.568 818.894 344.66V346.018C818.894 347.124 819.482 347.726 820.407 347.726ZM827.349 349H825.557V341.692H827.349V342.91H827.419C827.713 342.126 828.329 341.524 829.463 341.524C830.961 341.524 831.801 342.56 831.801 344.38V349H830.009V344.562C830.009 343.526 829.659 342.994 828.805 342.994C828.063 342.994 827.349 343.386 827.349 344.17V349ZM836.902 349.168C834.746 349.168 833.458 347.67 833.458 345.332C833.458 343.022 834.704 341.524 836.846 341.524C839.128 341.524 840.178 343.204 840.178 345.206V345.794H835.32V345.976C835.32 347.026 835.922 347.74 837.098 347.74C837.98 347.74 838.512 347.32 838.96 346.746L839.926 347.824C839.324 348.65 838.26 349.168 836.902 349.168ZM836.874 342.868C835.936 342.868 835.32 343.568 835.32 344.576V344.688H838.316V344.562C838.316 343.554 837.798 342.868 836.874 342.868ZM847.049 343.176H848.015C849.135 343.176 849.653 342.658 849.653 341.958V341.86C849.653 341.062 849.093 340.572 848.211 340.572C847.357 340.572 846.685 341.006 846.209 341.748L845.033 340.684C845.691 339.774 846.615 339.06 848.267 339.06C850.241 339.06 851.585 340.04 851.585 341.608C851.585 342.868 850.731 343.624 849.709 343.834V343.918C850.843 344.128 851.753 344.912 851.753 346.298C851.753 348.02 850.311 349.168 848.155 349.168C846.251 349.168 845.299 348.3 844.683 347.348L846.041 346.312C846.475 347.096 847.063 347.656 848.155 347.656C849.233 347.656 849.835 347.096 849.835 346.186V346.088C849.835 345.192 849.177 344.716 848.015 344.716H847.049V343.176Z" fill="black"/>
<rect width="24" height="24" transform="translate(768 332)" fill="white" fill-opacity="0.01" style="mix-blend-mode:multiply"/>
<path d="M789 339.5H785.25V336.5C785.25 336.102 785.091 335.721 784.81 335.44C784.529 335.159 784.148 335 783.75 335H776.25C775.852 335 775.471 335.159 775.19 335.44C774.909 335.721 774.75 336.102 774.75 336.5V339.5H771C770.602 339.5 770.221 339.659 769.94 339.94C769.659 340.221 769.5 340.602 769.5 341V353C769.5 353.398 769.659 353.779 769.94 354.06C770.221 354.341 770.602 354.5 771 354.5H789C789.398 354.5 789.779 354.341 790.06 354.06C790.341 353.779 790.5 353.398 790.5 353V341C790.5 340.602 790.341 340.221 790.06 339.94C789.779 339.659 789.398 339.5 789 339.5ZM771 353V341H774.75V342.5H773.25V344H774.75V345.5H773.25V347H774.75V348.5H773.25V350H774.75V353H771ZM783.75 353H776.25V336.5H783.75V353ZM789 353H785.25V350H786.75V348.5H785.25V347H786.75V345.5H785.25V344H786.75V342.5H785.25V341H789V353Z" fill="black"/>
<path d="M781.5 338H778.5V339.5H781.5V338Z" fill="black"/>
<path d="M781.5 341H778.5V342.5H781.5V341Z" fill="black"/>
<path d="M781.5 344H778.5V345.5H781.5V344Z" fill="black"/>
</g>
<path d="M758 320V320.5H762V320H766V320.5H770V320H774V320.5H778V320H782V320.5H786V320H790V320.5H794V320H798V320.5H802V320H806V320.5H810V320H814V320.5H818V320H822V320.5H826V320H830V320.5H834V320H838V320.5H842V320H846V320.5H850V320H854V320.5H858V320H862V320.5H866V320H870V320.5H874V320H878V320.5H882V320H886V320.5H890V320H894V320.5H898V320H902V320.5H906V320H910V320.5H914V320H918V320.5H922V320H926V320.5H930V320H934V320.5H938V320H942V320.5H946V320H950V320.5H954V320H958V320.5H959.5V322H960V326H959.5V330H960V334H959.5V338H960V342H959.5V346H960V350H959.5V354H960V358H959.5V362H960V366H959.5V370H960V374H959.5V378H960V382H959.5V386H960V390H959.5V394H960V398H959.5V402H960V406H959.5V410H960V414H959.5V418H960V422H959.5V426H960V430H959.5V434H960V438H959.5V442H960V446H959.5V450H960V454H959.5V458H960V462H959.5V466H960V470H959.5V474H960V478H959.5V482H960V486H959.5V490H960V494H959.5V498H960V502H959.5V506H960V510H959.5V511.5H958V512H954V511.5H950V512H946V511.5H942V512H938V511.5H934V512H930V511.5H926V512H922V511.5H918V512H914V511.5H910V512H906V511.5H902V512H898V511.5H894V512H890V511.5H886V512H882V511.5H878V512H874V511.5H870V512H866V511.5H862V512H858V511.5H854V512H850V511.5H846V512H842V511.5H838V512H834V511.5H830V512H826V511.5H822V512H818V511.5H814V512H810V511.5H806V512H802V511.5H798V512H794V511.5H790V512H786V511.5H782V512H778V511.5H774V512H770V511.5H766V512H762V511.5H758V512H754V511.5H752.5V510H752V506H752.5V502H752V498H752.5V494H752V490H752.5V486H752V482H752.5V478H752V474H752.5V470H752V466H752.5V462H752V458H752.5V454H752V450H752.5V446H752V442H752.5V438H752V434H752.5V430H752V426H752.5V422H752V418H752.5V414H752V410H752.5V406H752V402H752.5V398H752V394H752.5V390H752V386H752.5V382H752V378H752.5V374H752V370H752.5V366H752V362H752.5V358H752V354H752.5V350H752V346H752.5V342H752V338H752.5V334H752V330H752.5V326H752V322H752.5V320.5H754V320H758Z" stroke="black" stroke-dasharray="4 4"/>
<rect width="82" height="96" transform="translate(816 368)" fill="white" fill-opacity="0.01" style="mix-blend-mode:multiply"/>
<path d="M841 370H873C877.418 370 881 373.582 881 378V410C881 414.418 877.418 418 873 418H841C836.582 418 833 414.418 833 410V378C833 373.582 836.582 370 841 370Z" fill="#8D8D8D"/>
<rect width="24" height="24" transform="translate(845 382)" fill="white" fill-opacity="0.01"/>
<path d="M862.235 403.656C859.199 403.656 858.044 402.863 858.044 401.535C858.035 401.316 858.07 401.098 858.146 400.892C858.222 400.687 858.337 400.498 858.487 400.338C858.636 400.178 858.815 400.048 859.014 399.958C859.214 399.867 859.429 399.817 859.648 399.81V399.62C859.31 399.545 859.01 399.353 858.799 399.079C858.588 398.805 858.479 398.466 858.492 398.12C858.492 397.189 859.285 396.723 860.148 396.533V396.464C859.641 396.246 859.212 395.878 858.919 395.409C858.627 394.941 858.484 394.395 858.509 393.843C858.509 392.015 859.803 390.79 862.235 390.79C862.767 390.781 863.296 390.857 863.804 391.015V390.721C863.778 390.546 863.793 390.368 863.848 390.199C863.902 390.031 863.994 389.877 864.118 389.75C864.241 389.624 864.393 389.527 864.559 389.468C864.726 389.409 864.905 389.389 865.08 389.411H866.477V391.101H864.563V391.342C865.007 391.586 865.374 391.949 865.621 392.392C865.868 392.834 865.985 393.337 865.96 393.843C865.96 395.654 864.683 396.861 862.235 396.861C861.77 396.868 861.306 396.815 860.855 396.706C860.68 396.762 860.525 396.869 860.412 397.014C860.298 397.158 860.23 397.333 860.217 397.516C860.217 397.965 860.596 398.189 861.389 398.189H863.804C866.011 398.189 866.96 399.138 866.96 400.759C866.96 402.639 865.684 403.656 862.235 403.656ZM863.356 400.103H860.286C860.137 400.208 860.017 400.348 859.936 400.511C859.855 400.673 859.815 400.853 859.82 401.035C859.82 401.725 860.337 402.139 861.717 402.139H862.821C864.253 402.139 864.891 401.776 864.891 401.018C864.89 400.448 864.477 400.103 863.356 400.103ZM863.856 393.981V393.688C863.856 392.774 863.287 392.308 862.235 392.308C861.183 392.308 860.613 392.773 860.613 393.688V393.981C860.613 394.878 861.182 395.361 862.235 395.361C863.287 395.361 863.856 394.877 863.856 393.981Z" fill="white"/>
<path d="M848.452 400V387.962H853.867C856.092 387.962 857.437 389.462 857.437 391.688C857.437 393.93 856.092 395.413 853.867 395.413H850.729V400H848.452ZM850.729 393.446H853.661C853.847 393.469 854.037 393.45 854.215 393.39C854.393 393.33 854.556 393.231 854.691 393.101C854.827 392.971 854.931 392.812 854.998 392.636C855.064 392.46 855.09 392.271 855.075 392.084V391.291C855.09 391.104 855.063 390.916 854.996 390.742C854.93 390.567 854.825 390.409 854.689 390.28C854.554 390.151 854.391 390.054 854.213 389.996C854.035 389.938 853.846 389.921 853.661 389.945H850.729V393.446Z" fill="white"/>
<path d="M833.624 440.168C831.062 440.168 829.368 438.418 829.368 435.114C829.368 431.81 831.062 430.06 833.624 430.06C836.2 430.06 837.88 431.81 837.88 435.114C837.88 438.418 836.2 440.168 833.624 440.168ZM833.624 438.53C835.024 438.53 835.92 437.536 835.92 435.87V434.358C835.92 432.692 835.024 431.698 833.624 431.698C832.224 431.698 831.328 432.692 831.328 434.358V435.87C831.328 437.536 832.224 438.53 833.624 438.53ZM839.803 442.8V432.692H841.595V433.896H841.651C841.917 433.056 842.701 432.524 843.667 432.524C845.515 432.524 846.537 433.896 846.537 436.332C846.537 438.782 845.515 440.168 843.667 440.168C842.701 440.168 841.931 439.608 841.651 438.782H841.595V442.8H839.803ZM843.093 438.684C844.017 438.684 844.661 438.012 844.661 436.976V435.716C844.661 434.68 844.017 433.994 843.093 433.994C842.239 433.994 841.595 434.456 841.595 435.17V437.494C841.595 438.25 842.239 438.684 843.093 438.684ZM850.558 440C849.326 440 848.668 439.328 848.668 438.138V434.12H847.59V432.692H848.15C848.682 432.692 848.85 432.44 848.85 431.936V430.69H850.46V432.692H851.958V434.12H850.46V438.572H851.846V440H850.558ZM854.568 431.628C853.826 431.628 853.518 431.25 853.518 430.732V430.452C853.518 429.934 853.826 429.556 854.568 429.556C855.296 429.556 855.618 429.934 855.618 430.452V430.732C855.618 431.25 855.296 431.628 854.568 431.628ZM853.672 440V432.692H855.464V440H853.672ZM860.599 440.168C858.513 440.168 857.211 438.684 857.211 436.332C857.211 433.994 858.513 432.524 860.599 432.524C862.699 432.524 864.001 433.994 864.001 436.332C864.001 438.684 862.699 440.168 860.599 440.168ZM860.599 438.726C861.537 438.726 862.125 438.124 862.125 437.018V435.66C862.125 434.568 861.537 433.966 860.599 433.966C859.675 433.966 859.087 434.568 859.087 435.66V437.018C859.087 438.124 859.675 438.726 860.599 438.726ZM867.542 440H865.75V432.692H867.542V433.91H867.612C867.906 433.126 868.522 432.524 869.656 432.524C871.154 432.524 871.994 433.56 871.994 435.38V440H870.202V435.562C870.202 434.526 869.852 433.994 868.998 433.994C868.256 433.994 867.542 434.386 867.542 435.17V440ZM875.946 440.168C874.462 440.168 873.622 439.314 873.622 438.012C873.622 436.514 874.756 435.772 876.744 435.772H877.99V435.24C877.99 434.428 877.584 433.952 876.632 433.952C875.792 433.952 875.316 434.372 874.966 434.876L873.902 433.924C874.434 433.084 875.288 432.524 876.758 432.524C878.732 432.524 879.782 433.462 879.782 435.128V438.572H880.51V440H879.516C878.746 440 878.27 439.496 878.158 438.74H878.074C877.836 439.678 877.038 440.168 875.946 440.168ZM876.548 438.866C877.346 438.866 877.99 438.502 877.99 437.816V436.85H876.842C875.904 436.85 875.442 437.172 875.442 437.746V437.984C875.442 438.572 875.848 438.866 876.548 438.866ZM884.878 440H883.912C882.694 440 882.12 439.356 882.12 438.236V429.64H883.912V438.572H884.878V440ZM819.04 452.176H820.006C821.126 452.176 821.644 451.658 821.644 450.958V450.86C821.644 450.062 821.084 449.572 820.202 449.572C819.348 449.572 818.676 450.006 818.2 450.748L817.024 449.684C817.682 448.774 818.606 448.06 820.258 448.06C822.232 448.06 823.576 449.04 823.576 450.608C823.576 451.868 822.722 452.624 821.7 452.834V452.918C822.834 453.128 823.744 453.912 823.744 455.298C823.744 457.02 822.302 458.168 820.146 458.168C818.242 458.168 817.29 457.3 816.674 456.348L818.032 455.312C818.466 456.096 819.054 456.656 820.146 456.656C821.224 456.656 821.826 456.096 821.826 455.186V455.088C821.826 454.192 821.168 453.716 820.006 453.716H819.04V452.176ZM827.72 458H825.928V450.692H827.72V452.204H827.79C827.972 451.434 828.56 450.692 829.722 450.692H830.114V452.386H829.554C828.35 452.386 827.72 452.722 827.72 453.52V458ZM836.052 458V456.782H835.982C835.716 457.608 834.932 458.168 833.966 458.168C832.132 458.168 831.11 456.782 831.11 454.332C831.11 451.896 832.132 450.524 833.966 450.524C834.932 450.524 835.73 451.056 835.982 451.896H836.052V447.64H837.844V458H836.052ZM834.54 456.684C835.394 456.684 836.052 456.25 836.052 455.494V453.17C836.052 452.456 835.394 451.994 834.54 451.994C833.616 451.994 832.986 452.68 832.986 453.716V454.976C832.986 456.012 833.616 456.684 834.54 456.684ZM845.331 458H843.539V450.692H845.331V451.91H845.401C845.681 451.14 846.269 450.524 847.361 450.524C848.355 450.524 849.125 451.014 849.475 451.994H849.503C849.769 451.182 850.581 450.524 851.743 450.524C853.171 450.524 853.983 451.56 853.983 453.38V458H852.191V453.562C852.191 452.512 851.813 451.994 851.015 451.994C850.315 451.994 849.657 452.386 849.657 453.17V458H847.865V453.562C847.865 452.512 847.487 451.994 846.689 451.994C846.003 451.994 845.331 452.386 845.331 453.17V458ZM859.081 458.168C856.925 458.168 855.637 456.67 855.637 454.332C855.637 452.022 856.883 450.524 859.025 450.524C861.307 450.524 862.357 452.204 862.357 454.206V454.794H857.499V454.976C857.499 456.026 858.101 456.74 859.277 456.74C860.159 456.74 860.691 456.32 861.139 455.746L862.105 456.824C861.503 457.65 860.439 458.168 859.081 458.168ZM859.053 451.868C858.115 451.868 857.499 452.568 857.499 453.576V453.688H860.495V453.562C860.495 452.554 859.977 451.868 859.053 451.868ZM865.885 458H864.093V450.692H865.885V451.91H865.955C866.235 451.14 866.823 450.524 867.915 450.524C868.909 450.524 869.679 451.014 870.029 451.994H870.057C870.323 451.182 871.135 450.524 872.297 450.524C873.725 450.524 874.537 451.56 874.537 453.38V458H872.745V453.562C872.745 452.512 872.367 451.994 871.569 451.994C870.869 451.994 870.211 452.386 870.211 453.17V458H868.419V453.562C868.419 452.512 868.041 451.994 867.243 451.994C866.557 451.994 865.885 452.386 865.885 453.17V458ZM876.681 458V447.64H878.473V451.896H878.529C878.795 451.056 879.579 450.524 880.545 450.524C882.393 450.524 883.415 451.896 883.415 454.332C883.415 456.782 882.393 458.168 880.545 458.168C879.579 458.168 878.809 457.608 878.529 456.782H878.473V458H876.681ZM879.971 456.684C880.895 456.684 881.539 456.012 881.539 454.976V453.716C881.539 452.68 880.895 451.994 879.971 451.994C879.117 451.994 878.473 452.456 878.473 453.17V455.494C878.473 456.25 879.117 456.684 879.971 456.684ZM888.19 458.168C886.034 458.168 884.746 456.67 884.746 454.332C884.746 452.022 885.992 450.524 888.134 450.524C890.416 450.524 891.466 452.204 891.466 454.206V454.794H886.608V454.976C886.608 456.026 887.21 456.74 888.386 456.74C889.268 456.74 889.8 456.32 890.248 455.746L891.214 456.824C890.612 457.65 889.548 458.168 888.19 458.168ZM888.162 451.868C887.224 451.868 886.608 452.568 886.608 453.576V453.688H889.604V453.562C889.604 452.554 889.086 451.868 888.162 451.868ZM894.994 458H893.202V450.692H894.994V452.204H895.064C895.246 451.434 895.834 450.692 896.996 450.692H897.388V452.386H896.828C895.624 452.386 894.994 452.722 894.994 453.52V458Z" fill="black"/>
<rect x="1008.5" y="320.5" width="207" height="527" stroke="#0F62FE"/>
<g clip-path="url(#clip6_224_4952)">
<path d="M1065.15 349V339.228H1069.67C1071.28 339.228 1072.26 340.222 1072.26 341.734C1072.26 343.218 1071.41 343.778 1070.51 343.834V343.918C1071.36 343.932 1072.62 344.534 1072.62 346.2C1072.62 347.768 1071.55 349 1070.1 349H1065.15ZM1067 344.814V347.432H1069.57C1070.27 347.432 1070.69 347.054 1070.69 346.368V345.892C1070.69 345.206 1070.27 344.814 1069.57 344.814H1067ZM1067 340.796V343.302H1069.28C1069.95 343.302 1070.34 342.91 1070.34 342.266V341.832C1070.34 341.174 1069.95 340.796 1069.28 340.796H1067ZM1076.29 349.168C1074.8 349.168 1073.96 348.314 1073.96 347.012C1073.96 345.514 1075.1 344.772 1077.08 344.772H1078.33V344.24C1078.33 343.428 1077.92 342.952 1076.97 342.952C1076.13 342.952 1075.66 343.372 1075.31 343.876L1074.24 342.924C1074.77 342.084 1075.63 341.524 1077.1 341.524C1079.07 341.524 1080.12 342.462 1080.12 344.128V347.572H1080.85V349H1079.86C1079.09 349 1078.61 348.496 1078.5 347.74H1078.41C1078.18 348.678 1077.38 349.168 1076.29 349.168ZM1076.89 347.866C1077.69 347.866 1078.33 347.502 1078.33 346.816V345.85H1077.18C1076.24 345.85 1075.78 346.172 1075.78 346.746V346.984C1075.78 347.572 1076.19 347.866 1076.89 347.866ZM1085.34 349.168C1083.19 349.168 1081.97 347.684 1081.97 345.332C1081.97 342.994 1083.19 341.524 1085.34 341.524C1086.81 341.524 1087.78 342.224 1088.21 343.372L1086.74 344.03C1086.58 343.414 1086.11 342.966 1085.34 342.966C1084.35 342.966 1083.85 343.666 1083.85 344.688V346.018C1083.85 347.04 1084.35 347.726 1085.34 347.726C1086.2 347.726 1086.62 347.236 1086.88 346.578L1088.26 347.236C1087.78 348.524 1086.76 349.168 1085.34 349.168ZM1089.8 349V338.64H1091.59V344.884H1091.66L1092.63 343.568L1094.26 341.692H1096.29L1093.77 344.52L1096.56 349H1094.43L1092.56 345.724L1091.59 346.774V349H1089.8ZM1102.05 349V347.782H1101.98C1101.73 348.51 1101.14 349.168 1099.94 349.168C1098.44 349.168 1097.6 348.132 1097.6 346.312V341.692H1099.39V346.13C1099.39 347.138 1099.77 347.684 1100.62 347.684C1101.34 347.684 1102.05 347.306 1102.05 346.522V341.692H1103.84V349H1102.05ZM1106.07 351.8V341.692H1107.86V342.896H1107.92C1108.19 342.056 1108.97 341.524 1109.94 341.524C1111.78 341.524 1112.81 342.896 1112.81 345.332C1112.81 347.782 1111.78 349.168 1109.94 349.168C1108.97 349.168 1108.2 348.608 1107.92 347.782H1107.86V351.8H1106.07ZM1109.36 347.684C1110.29 347.684 1110.93 347.012 1110.93 345.976V344.716C1110.93 343.68 1110.29 342.994 1109.36 342.994C1108.51 342.994 1107.86 343.456 1107.86 344.17V346.494C1107.86 347.25 1108.51 347.684 1109.36 347.684ZM1117.02 349.168C1115.63 349.168 1114.72 348.664 1114 347.824L1115.09 346.76C1115.62 347.376 1116.26 347.754 1117.09 347.754C1117.94 347.754 1118.31 347.432 1118.31 346.914C1118.31 346.494 1118.06 346.228 1117.41 346.144L1116.68 346.046C1115.12 345.85 1114.25 345.164 1114.25 343.834C1114.25 342.42 1115.35 341.524 1117.02 341.524C1118.45 341.524 1119.18 341.944 1119.88 342.672L1118.83 343.722C1118.41 343.274 1117.79 342.938 1117.08 342.938C1116.31 342.938 1115.97 343.246 1115.97 343.694C1115.97 344.184 1116.24 344.408 1116.92 344.52L1117.66 344.618C1119.26 344.842 1120.03 345.556 1120.03 346.774C1120.03 348.188 1118.84 349.168 1117.02 349.168Z" fill="black"/>
<g clip-path="url(#clip7_224_4952)">
<rect width="24" height="24" transform="translate(1024 332)" fill="white" fill-opacity="0.01" style="mix-blend-mode:multiply"/>
<path d="M1043.37 339.593C1043.04 337.879 1042.12 336.333 1040.78 335.221C1039.44 334.108 1037.74 333.5 1036 333.5C1034.26 333.5 1032.56 334.108 1031.22 335.221C1029.88 336.333 1028.96 337.879 1028.63 339.593C1027.25 339.84 1026.01 340.597 1025.16 341.713C1024.3 342.83 1023.9 344.225 1024.02 345.625C1024.15 347.025 1024.79 348.328 1025.83 349.277C1026.86 350.225 1028.22 350.751 1029.62 350.75H1030V349.25H1029.62C1028.56 349.251 1027.53 348.836 1026.76 348.093C1025.99 347.351 1025.54 346.338 1025.5 345.269C1025.47 344.201 1025.85 343.16 1026.56 342.366C1027.28 341.572 1028.28 341.088 1029.34 341.016L1029.97 340.973L1030.04 340.348C1030.2 338.878 1030.89 337.52 1032 336.533C1033.1 335.546 1034.52 335 1036 335C1037.48 335 1038.9 335.546 1040 336.533C1041.11 337.52 1041.8 338.878 1041.96 340.348L1042.03 340.973L1042.66 341.016C1043.72 341.088 1044.72 341.572 1045.44 342.366C1046.15 343.16 1046.53 344.201 1046.5 345.27C1046.46 346.338 1046.01 347.351 1045.24 348.093C1044.47 348.836 1043.44 349.251 1042.37 349.25H1042V350.75H1042.37C1043.78 350.751 1045.14 350.225 1046.17 349.277C1047.21 348.328 1047.85 347.025 1047.98 345.625C1048.1 344.226 1047.7 342.83 1046.84 341.713C1045.99 340.597 1044.75 339.84 1043.37 339.593Z" fill="black"/>
<path d="M1041.25 348.5V347H1039.67C1039.58 346.531 1039.39 346.084 1039.13 345.685L1040.24 344.568L1039.18 343.507L1038.06 344.625C1037.67 344.359 1037.22 344.173 1036.75 344.076V342.5H1035.25V344.076C1034.78 344.173 1034.33 344.359 1033.94 344.625L1032.82 343.507L1031.76 344.568L1032.87 345.685C1032.61 346.084 1032.42 346.531 1032.33 347H1030.75V348.5H1032.33C1032.42 348.97 1032.61 349.416 1032.87 349.815L1031.76 350.932L1032.82 351.993L1033.94 350.875C1034.33 351.141 1034.78 351.328 1035.25 351.424V353H1036.75V351.424C1037.22 351.328 1037.67 351.141 1038.06 350.875L1039.18 351.993L1040.24 350.932L1039.13 349.815C1039.39 349.416 1039.58 348.97 1039.67 348.5H1041.25ZM1036 350C1035.55 350 1035.12 349.868 1034.75 349.621C1034.38 349.374 1034.09 349.022 1033.92 348.611C1033.75 348.2 1033.71 347.748 1033.79 347.311C1033.88 346.875 1034.09 346.474 1034.41 346.159C1034.72 345.844 1035.12 345.63 1035.56 345.543C1036 345.457 1036.45 345.501 1036.86 345.671C1037.27 345.842 1037.62 346.13 1037.87 346.5C1038.12 346.87 1038.25 347.305 1038.25 347.75C1038.25 348.347 1038.01 348.919 1037.59 349.34C1037.17 349.762 1036.6 350 1036 350Z" fill="black"/>
</g>
<line x1="1010" y1="320" x2="1010" y2="368" stroke="#0F62FE" stroke-width="4"/>
</g>
<path d="M1096 384.489H1128C1132.42 384.489 1136 388.07 1136 392.489V424.489C1136 428.907 1132.42 432.489 1128 432.489H1096C1091.58 432.489 1088 428.907 1088 424.489V392.489C1088 388.07 1091.58 384.489 1096 384.489Z" fill="#0F62FE"/>
<rect width="24" height="24" transform="translate(1100 396.489)" fill="white" fill-opacity="0.01"/>
<path d="M1121 411.489H1119.5V412.989H1121V417.489H1103V412.989H1110.5V411.489H1103C1102.6 411.489 1102.22 411.647 1101.94 411.929C1101.66 412.21 1101.5 412.591 1101.5 412.989V417.489C1101.5 417.886 1101.66 418.268 1101.94 418.549C1102.22 418.83 1102.6 418.988 1103 418.989H1121C1121.4 418.988 1121.78 418.83 1122.06 418.549C1122.34 418.268 1122.5 417.886 1122.5 417.489V412.989C1122.5 412.591 1122.34 412.21 1122.06 411.929C1121.78 411.647 1121.4 411.489 1121 411.489Z" fill="#F4F4F4"/>
<path d="M1105.25 415.989C1105.66 415.989 1106 415.653 1106 415.239C1106 414.825 1105.66 414.489 1105.25 414.489C1104.84 414.489 1104.5 414.825 1104.5 415.239C1104.5 415.653 1104.84 415.989 1105.25 415.989Z" fill="#F4F4F4"/>
<path d="M1122.5 402.489H1116.5V406.989H1112V412.989H1118V408.489H1122.5V402.489ZM1116.5 411.489H1113.5V408.489H1116.5V411.489ZM1121 406.989H1118V403.989H1121V406.989Z" fill="#F4F4F4"/>
<path d="M1113.5 403.989H1107.5V397.989H1113.5V403.989ZM1109 402.489H1112V399.489H1109V402.489Z" fill="#F4F4F4"/>
<path d="M1095.28 454.657C1092.72 454.657 1091.02 452.907 1091.02 449.603C1091.02 446.299 1092.72 444.549 1095.28 444.549C1097.85 444.549 1099.53 446.299 1099.53 449.603C1099.53 452.907 1097.85 454.657 1095.28 454.657ZM1095.28 453.019C1096.68 453.019 1097.57 452.025 1097.57 450.359V448.847C1097.57 447.181 1096.68 446.187 1095.28 446.187C1093.88 446.187 1092.98 447.181 1092.98 448.847V450.359C1092.98 452.025 1093.88 453.019 1095.28 453.019ZM1101.46 454.489V444.129H1103.25V448.385H1103.31C1103.57 447.545 1104.36 447.013 1105.32 447.013C1107.17 447.013 1108.19 448.385 1108.19 450.821C1108.19 453.271 1107.17 454.657 1105.32 454.657C1104.36 454.657 1103.59 454.097 1103.31 453.271H1103.25V454.489H1101.46ZM1104.75 453.173C1105.67 453.173 1106.32 452.501 1106.32 451.465V450.205C1106.32 449.169 1105.67 448.483 1104.75 448.483C1103.89 448.483 1103.25 448.945 1103.25 449.659V451.983C1103.25 452.739 1103.89 453.173 1104.75 453.173ZM1110.01 455.861V447.181H1111.8V455.371C1111.8 456.589 1111.22 457.289 1109.87 457.289H1108.89V455.861H1110.01ZM1110.91 446.117C1110.17 446.117 1109.86 445.739 1109.86 445.221V444.941C1109.86 444.423 1110.17 444.045 1110.91 444.045C1111.64 444.045 1111.96 444.423 1111.96 444.941V445.221C1111.96 445.739 1111.64 446.117 1110.91 446.117ZM1116.99 454.657C1114.84 454.657 1113.55 453.159 1113.55 450.821C1113.55 448.511 1114.8 447.013 1116.94 447.013C1119.22 447.013 1120.27 448.693 1120.27 450.695V451.283H1115.41V451.465C1115.41 452.515 1116.01 453.229 1117.19 453.229C1118.07 453.229 1118.6 452.809 1119.05 452.235L1120.02 453.313C1119.42 454.139 1118.35 454.657 1116.99 454.657ZM1116.97 448.357C1116.03 448.357 1115.41 449.057 1115.41 450.065V450.177H1118.41V450.051C1118.41 449.043 1117.89 448.357 1116.97 448.357ZM1124.89 454.657C1122.74 454.657 1121.52 453.173 1121.52 450.821C1121.52 448.483 1122.74 447.013 1124.89 447.013C1126.36 447.013 1127.33 447.713 1127.76 448.861L1126.29 449.519C1126.12 448.903 1125.66 448.455 1124.89 448.455C1123.9 448.455 1123.39 449.155 1123.39 450.177V451.507C1123.39 452.529 1123.9 453.215 1124.89 453.215C1125.75 453.215 1126.17 452.725 1126.43 452.067L1127.8 452.725C1127.33 454.013 1126.31 454.657 1124.89 454.657ZM1131.63 454.489C1130.4 454.489 1129.74 453.817 1129.74 452.627V448.609H1128.66V447.181H1129.22C1129.75 447.181 1129.92 446.929 1129.92 446.425V445.179H1131.53V447.181H1133.03V448.609H1131.53V453.061H1132.92V454.489H1131.63ZM1090.45 472.489V462.129H1092.25V466.385H1092.3C1092.57 465.545 1093.35 465.013 1094.32 465.013C1096.17 465.013 1097.19 466.385 1097.19 468.821C1097.19 471.271 1096.17 472.657 1094.32 472.657C1093.35 472.657 1092.58 472.097 1092.3 471.271H1092.25V472.489H1090.45ZM1093.74 471.173C1094.67 471.173 1095.31 470.501 1095.31 469.465V468.205C1095.31 467.169 1094.67 466.483 1093.74 466.483C1092.89 466.483 1092.25 466.945 1092.25 467.659V469.983C1092.25 470.739 1092.89 471.173 1093.74 471.173ZM1103.38 472.489V471.271H1103.31C1103.05 471.999 1102.47 472.657 1101.26 472.657C1099.76 472.657 1098.92 471.621 1098.92 469.801V465.181H1100.72V469.619C1100.72 470.627 1101.09 471.173 1101.95 471.173C1102.66 471.173 1103.38 470.795 1103.38 470.011V465.181H1105.17V472.489H1103.38ZM1110.28 472.657C1108.13 472.657 1106.91 471.173 1106.91 468.821C1106.91 466.483 1108.13 465.013 1110.28 465.013C1111.75 465.013 1112.72 465.713 1113.15 466.861L1111.68 467.519C1111.51 466.903 1111.05 466.455 1110.28 466.455C1109.29 466.455 1108.78 467.155 1108.78 468.177V469.507C1108.78 470.529 1109.29 471.215 1110.28 471.215C1111.14 471.215 1111.56 470.725 1111.82 470.067L1113.19 470.725C1112.72 472.013 1111.7 472.657 1110.28 472.657ZM1114.74 472.489V462.129H1116.53V468.373H1116.6L1117.56 467.057L1119.2 465.181H1121.23L1118.71 468.009L1121.5 472.489H1119.37L1117.49 469.213L1116.53 470.263V472.489H1114.74ZM1125.37 472.657C1123.21 472.657 1121.93 471.159 1121.93 468.821C1121.93 466.511 1123.17 465.013 1125.31 465.013C1127.6 465.013 1128.65 466.693 1128.65 468.695V469.283H1123.79V469.465C1123.79 470.515 1124.39 471.229 1125.57 471.229C1126.45 471.229 1126.98 470.809 1127.43 470.235L1128.39 471.313C1127.79 472.139 1126.73 472.657 1125.37 472.657ZM1125.34 466.357C1124.4 466.357 1123.79 467.057 1123.79 468.065V468.177H1126.78V468.051C1126.78 467.043 1126.27 466.357 1125.34 466.357ZM1132.66 472.489C1131.43 472.489 1130.77 471.817 1130.77 470.627V466.609H1129.7V465.181H1130.26C1130.79 465.181 1130.96 464.929 1130.96 464.425V463.179H1132.57V465.181H1134.06V466.609H1132.57V471.061H1133.95V472.489H1132.66Z" fill="black"/>
<path d="M1096 692H1128C1132.42 692 1136 695.582 1136 700V732C1136 736.418 1132.42 740 1128 740H1096C1091.58 740 1088 736.418 1088 732V700C1088 695.582 1091.58 692 1096 692Z" fill="#0F62FE"/>
<rect width="24" height="24" transform="translate(1100 704)" fill="white" fill-opacity="0.01"/>
<path d="M1121 719H1119.5V720.5H1121V725H1103V720.5H1110.5V719H1103C1102.6 719 1102.22 719.159 1101.94 719.44C1101.66 719.721 1101.5 720.102 1101.5 720.5V725C1101.5 725.398 1101.66 725.779 1101.94 726.06C1102.22 726.341 1102.6 726.5 1103 726.5H1121C1121.4 726.5 1121.78 726.341 1122.06 726.06C1122.34 725.779 1122.5 725.398 1122.5 725V720.5C1122.5 720.102 1122.34 719.721 1122.06 719.44C1121.78 719.159 1121.4 719 1121 719Z" fill="#F4F4F4"/>
<path d="M1105.25 723.5C1105.66 723.5 1106 723.164 1106 722.75C1106 722.336 1105.66 722 1105.25 722C1104.84 722 1104.5 722.336 1104.5 722.75C1104.5 723.164 1104.84 723.5 1105.25 723.5Z" fill="#F4F4F4"/>
<path d="M1122.5 710H1116.5V714.5H1112V720.5H1118V716H1122.5V710ZM1116.5 719H1113.5V716H1116.5V719ZM1121 714.5H1118V711.5H1121V714.5Z" fill="#F4F4F4"/>
<path d="M1113.5 711.5H1107.5V705.5H1113.5V711.5ZM1109 710H1112V707H1109V710Z" fill="#F4F4F4"/>
<path d="M1095.28 762.168C1092.72 762.168 1091.02 760.418 1091.02 757.114C1091.02 753.81 1092.72 752.06 1095.28 752.06C1097.85 752.06 1099.53 753.81 1099.53 757.114C1099.53 760.418 1097.85 762.168 1095.28 762.168ZM1095.28 760.53C1096.68 760.53 1097.57 759.536 1097.57 757.87V756.358C1097.57 754.692 1096.68 753.698 1095.28 753.698C1093.88 753.698 1092.98 754.692 1092.98 756.358V757.87C1092.98 759.536 1093.88 760.53 1095.28 760.53ZM1101.46 762V751.64H1103.25V755.896H1103.31C1103.57 755.056 1104.36 754.524 1105.32 754.524C1107.17 754.524 1108.19 755.896 1108.19 758.332C1108.19 760.782 1107.17 762.168 1105.32 762.168C1104.36 762.168 1103.59 761.608 1103.31 760.782H1103.25V762H1101.46ZM1104.75 760.684C1105.67 760.684 1106.32 760.012 1106.32 758.976V757.716C1106.32 756.68 1105.67 755.994 1104.75 755.994C1103.89 755.994 1103.25 756.456 1103.25 757.17V759.494C1103.25 760.25 1103.89 760.684 1104.75 760.684ZM1110.01 763.372V754.692H1111.8V762.882C1111.8 764.1 1111.22 764.8 1109.87 764.8H1108.89V763.372H1110.01ZM1110.91 753.628C1110.17 753.628 1109.86 753.25 1109.86 752.732V752.452C1109.86 751.934 1110.17 751.556 1110.91 751.556C1111.64 751.556 1111.96 751.934 1111.96 752.452V752.732C1111.96 753.25 1111.64 753.628 1110.91 753.628ZM1116.99 762.168C1114.84 762.168 1113.55 760.67 1113.55 758.332C1113.55 756.022 1114.8 754.524 1116.94 754.524C1119.22 754.524 1120.27 756.204 1120.27 758.206V758.794H1115.41V758.976C1115.41 760.026 1116.01 760.74 1117.19 760.74C1118.07 760.74 1118.6 760.32 1119.05 759.746L1120.02 760.824C1119.42 761.65 1118.35 762.168 1116.99 762.168ZM1116.97 755.868C1116.03 755.868 1115.41 756.568 1115.41 757.576V757.688H1118.41V757.562C1118.41 756.554 1117.89 755.868 1116.97 755.868ZM1124.89 762.168C1122.74 762.168 1121.52 760.684 1121.52 758.332C1121.52 755.994 1122.74 754.524 1124.89 754.524C1126.36 754.524 1127.33 755.224 1127.76 756.372L1126.29 757.03C1126.12 756.414 1125.66 755.966 1124.89 755.966C1123.9 755.966 1123.39 756.666 1123.39 757.688V759.018C1123.39 760.04 1123.9 760.726 1124.89 760.726C1125.75 760.726 1126.17 760.236 1126.43 759.578L1127.8 760.236C1127.33 761.524 1126.31 762.168 1124.89 762.168ZM1131.63 762C1130.4 762 1129.74 761.328 1129.74 760.138V756.12H1128.66V754.692H1129.22C1129.75 754.692 1129.92 754.44 1129.92 753.936V752.69H1131.53V754.692H1133.03V756.12H1131.53V760.572H1132.92V762H1131.63ZM1090.45 780V769.64H1092.25V773.896H1092.3C1092.57 773.056 1093.35 772.524 1094.32 772.524C1096.17 772.524 1097.19 773.896 1097.19 776.332C1097.19 778.782 1096.17 780.168 1094.32 780.168C1093.35 780.168 1092.58 779.608 1092.3 778.782H1092.25V780H1090.45ZM1093.74 778.684C1094.67 778.684 1095.31 778.012 1095.31 776.976V775.716C1095.31 774.68 1094.67 773.994 1093.74 773.994C1092.89 773.994 1092.25 774.456 1092.25 775.17V777.494C1092.25 778.25 1092.89 778.684 1093.74 778.684ZM1103.38 780V778.782H1103.31C1103.05 779.51 1102.47 780.168 1101.26 780.168C1099.76 780.168 1098.92 779.132 1098.92 777.312V772.692H1100.72V777.13C1100.72 778.138 1101.09 778.684 1101.95 778.684C1102.66 778.684 1103.38 778.306 1103.38 777.522V772.692H1105.17V780H1103.38ZM1110.28 780.168C1108.13 780.168 1106.91 778.684 1106.91 776.332C1106.91 773.994 1108.13 772.524 1110.28 772.524C1111.75 772.524 1112.72 773.224 1113.15 774.372L1111.68 775.03C1111.51 774.414 1111.05 773.966 1110.28 773.966C1109.29 773.966 1108.78 774.666 1108.78 775.688V777.018C1108.78 778.04 1109.29 778.726 1110.28 778.726C1111.14 778.726 1111.56 778.236 1111.82 777.578L1113.19 778.236C1112.72 779.524 1111.7 780.168 1110.28 780.168ZM1114.74 780V769.64H1116.53V775.884H1116.6L1117.56 774.568L1119.2 772.692H1121.23L1118.71 775.52L1121.5 780H1119.37L1117.49 776.724L1116.53 777.774V780H1114.74ZM1125.37 780.168C1123.21 780.168 1121.93 778.67 1121.93 776.332C1121.93 774.022 1123.17 772.524 1125.31 772.524C1127.6 772.524 1128.65 774.204 1128.65 776.206V776.794H1123.79V776.976C1123.79 778.026 1124.39 778.74 1125.57 778.74C1126.45 778.74 1126.98 778.32 1127.43 777.746L1128.39 778.824C1127.79 779.65 1126.73 780.168 1125.37 780.168ZM1125.34 773.868C1124.4 773.868 1123.79 774.568 1123.79 775.576V775.688H1126.78V775.562C1126.78 774.554 1126.27 773.868 1125.34 773.868ZM1132.66 780C1131.43 780 1130.77 779.328 1130.77 778.138V774.12H1129.7V772.692H1130.26C1130.79 772.692 1130.96 772.44 1130.96 771.936V770.69H1132.57V772.692H1134.06V774.12H1132.57V778.572H1133.95V780H1132.66Z" fill="black"/>
<rect width="184.453" height="48" transform="translate(1184 408) rotate(90)" fill="white" fill-opacity="0.01" style="mix-blend-mode:multiply"/>
<path d="M1184 592.453L1184 416C1184 411.582 1180.42 408 1176 408L1136 408" stroke="black" stroke-dasharray="4 4"/>
<rect width="128.528" height="48" transform="matrix(1.53527e-08 -1 -1 -9.2624e-09 1184 720)" fill="white" fill-opacity="0.01" style="mix-blend-mode:multiply"/>
<path d="M1184 591.472L1184 712C1184 716.418 1180.42 720 1176 720L1136 720" stroke="black" stroke-dasharray="4 4"/>
<defs>
<clipPath id="clip0_224_4952">
<rect width="1056" height="48" fill="white" transform="translate(240 144)"/>
</clipPath>
<clipPath id="clip1_224_4952">
<rect width="960" height="48" fill="white" transform="translate(288 240)"/>
</clipPath>
<clipPath id="clip2_224_4952">
<rect width="960" height="48" fill="white" transform="translate(288 576)"/>
</clipPath>
<clipPath id="clip3_224_4952">
<rect width="208" height="48" fill="white" transform="translate(304 320)"/>
</clipPath>
<clipPath id="clip4_224_4952">
<rect width="208" height="48" fill="white" transform="translate(528 320)"/>
</clipPath>
<clipPath id="clip5_224_4952">
<rect width="208" height="48" fill="white" transform="translate(752 320)"/>
</clipPath>
<clipPath id="clip6_224_4952">
<rect width="208" height="48" fill="white" transform="translate(1008 320)"/>
</clipPath>
<clipPath id="clip7_224_4952">
<rect width="24" height="24" fill="white" transform="translate(1024 332)"/>
</clipPath>
</defs>
</svg>
