<svg width="1056" height="768" viewBox="0 0 1056 768" fill="none" xmlns="http://www.w3.org/2000/svg">
<g id="PostgreSQL, High availability architecture">
<g id="Infrastructure">
<path d="M8 0.5H1048C1052.14 0.5 1055.5 3.85786 1055.5 8V760C1055.5 764.142 1052.14 767.5 1048 767.5H8C3.85787 767.5 0.5 764.142 0.5 760V8C0.500008 3.85787 3.85787 0.5 8 0.5Z" fill="white"/>
<path d="M8 0.5H1048C1052.14 0.5 1055.5 3.85786 1055.5 8V760C1055.5 764.142 1052.14 767.5 1048 767.5H8C3.85787 767.5 0.5 764.142 0.5 760V8C0.500008 3.85787 3.85787 0.5 8 0.5Z" stroke="#8D8D8D"/>
<path id="Background white" d="M1 8.00002C1 4.13403 4.13401 1 8 1H1048C1051.87 1 1055 4.13401 1055 8V760C1055 763.866 1051.87 767 1048 767H8.00002C4.13403 767 1 763.866 1 760V8.00002Z" fill="white"/>
<g id="Content" clip-path="url(#clip0_473_5139)">
<g id="Label + Text">
<path id="Label" d="M61.18 29H56.742V27.516H58.03V20.712H56.742V19.228H61.18V20.712H59.878V27.516H61.18V29ZM63.2279 29V19.228H67.7499C69.3599 19.228 70.3399 20.222 70.3399 21.734C70.3399 23.218 69.4859 23.778 68.5899 23.834V23.918C69.4439 23.932 70.7039 24.534 70.7039 26.2C70.7039 27.768 69.6259 29 68.1839 29H63.2279ZM65.0759 24.814V27.432H67.6519C68.3519 27.432 68.7719 27.054 68.7719 26.368V25.892C68.7719 25.206 68.3519 24.814 67.6519 24.814H65.0759ZM65.0759 20.796V23.302H67.3579C68.0299 23.302 68.4219 22.91 68.4219 22.266V21.832C68.4219 21.174 68.0299 20.796 67.3579 20.796H65.0759ZM72.6711 29V19.228H74.7571L77.2631 24.002H77.3191L79.7971 19.228H81.7991V29H80.0491V21.986H79.9931L79.2371 23.54L77.2351 27.236L75.2331 23.54L74.4771 21.986H74.4211V29H72.6711ZM91.5234 29.168C88.9474 29.168 87.3094 27.474 87.3094 24.184C87.3094 20.894 88.9474 19.06 91.5234 19.06C93.2734 19.06 94.4074 19.802 95.0934 21.314L93.5114 22.154C93.2314 21.286 92.6154 20.698 91.5234 20.698C90.1514 20.698 89.2694 21.692 89.2694 23.358V24.898C89.2694 26.578 90.1514 27.53 91.5234 27.53C92.6294 27.53 93.3154 26.858 93.6374 25.976L95.1354 26.858C94.4354 28.314 93.2734 29.168 91.5234 29.168ZM99.5178 29H98.5518C97.3338 29 96.7598 28.356 96.7598 27.236V18.64H98.5518V27.572H99.5178V29ZM103.933 29.168C101.847 29.168 100.545 27.684 100.545 25.332C100.545 22.994 101.847 21.524 103.933 21.524C106.033 21.524 107.335 22.994 107.335 25.332C107.335 27.684 106.033 29.168 103.933 29.168ZM103.933 27.726C104.871 27.726 105.459 27.124 105.459 26.018V24.66C105.459 23.568 104.871 22.966 103.933 22.966C103.009 22.966 102.421 23.568 102.421 24.66V26.018C102.421 27.124 103.009 27.726 103.933 27.726ZM113.452 29V27.782H113.382C113.13 28.51 112.542 29.168 111.338 29.168C109.84 29.168 109 28.132 109 26.312V21.692H110.792V26.13C110.792 27.138 111.17 27.684 112.024 27.684C112.738 27.684 113.452 27.306 113.452 26.522V21.692H115.244V29H113.452ZM122.01 29V27.782H121.94C121.674 28.608 120.89 29.168 119.924 29.168C118.09 29.168 117.068 27.782 117.068 25.332C117.068 22.896 118.09 21.524 119.924 21.524C120.89 21.524 121.688 22.056 121.94 22.896H122.01V18.64H123.802V29H122.01ZM120.498 27.684C121.352 27.684 122.01 27.25 122.01 26.494V24.17C122.01 23.456 121.352 22.994 120.498 22.994C119.574 22.994 118.944 23.68 118.944 24.716V25.976C118.944 27.012 119.574 27.684 120.498 27.684Z" fill="black"/>
</g>
<g id="Icon">
<g id="Cloud">
<rect width="24" height="24" transform="translate(16 12)" fill="white" fill-opacity="0.01" style="mix-blend-mode:multiply"/>
<path id="Vector" d="M28.0003 17.25C28.3806 17.2499 28.7599 17.2876 29.1328 17.3625C30.311 17.5882 31.3945 18.1618 32.2435 19.0094C33.0924 19.857 33.6678 20.9396 33.8953 22.1175L34.0903 23.13L35.1028 23.31C36.1254 23.4859 37.0442 24.0407 37.676 24.8639C38.3077 25.6871 38.606 26.7181 38.5114 27.7515C38.4168 28.7848 37.9362 29.7446 37.1654 30.4393C36.3946 31.134 35.3904 31.5128 34.3528 31.5H21.6253C20.5877 31.5128 19.5834 31.134 18.8126 30.4393C18.0419 29.7446 17.5613 28.7848 17.4666 27.7515C17.372 26.7181 17.6703 25.6871 18.3021 24.8639C18.9338 24.0407 19.8526 23.4859 20.8753 23.31L21.8803 23.13L22.0753 22.1175C22.3396 20.7422 23.0766 19.5027 24.1588 18.6138C25.2409 17.7248 26.5998 17.2423 28.0003 17.25ZM28.0003 15.75C26.2547 15.7486 24.5634 16.356 23.2176 17.4677C21.8718 18.5793 20.9559 20.1256 20.6278 21.84C19.2465 22.0901 18.0087 22.8476 17.1574 23.9637C16.3061 25.0798 15.9029 26.4738 16.0269 27.8721C16.1509 29.2703 16.7933 30.5716 17.8277 31.5204C18.8622 32.4692 20.2141 32.997 21.6178 33H34.3678C35.7715 32.997 37.1233 32.4692 38.1578 31.5204C39.1923 30.5716 39.8346 29.2703 39.9586 27.8721C40.0827 26.4738 39.6794 25.0798 38.8282 23.9637C37.9769 22.8476 36.739 22.0901 35.3578 21.84C35.0753 20.3654 34.3567 19.0095 33.295 17.9478C32.2333 16.8861 30.8774 16.1675 29.4028 15.885C28.9404 15.7972 28.4709 15.7521 28.0003 15.75Z" fill="black"/>
</g>
</g>
</g>
</g>
<g id="Location">
<rect x="48.5" y="96.5" width="959" height="287" fill="white" fill-opacity="0.01" style="mix-blend-mode:multiply"/>
<rect x="48.5" y="96.5" width="959" height="287" stroke="#0F62FE"/>
<rect id="Background white_2" x="49" y="97" width="958" height="286" fill="white"/>
<rect id="Background color" x="49" y="97" width="958" height="286" fill="#EDF5FF"/>
<g id="Content_2" clip-path="url(#clip1_473_5139)">
<g id="Label + Text_2">
<path id="Label_2" d="M106.996 121.234V125H105.148V115.228H109.558C111.336 115.228 112.442 116.404 112.442 118.252C112.442 119.596 111.826 120.618 110.622 121.024L112.624 125H110.566L108.746 121.234H106.996ZM106.996 119.68H109.376C110.09 119.68 110.524 119.288 110.524 118.574V117.93C110.524 117.216 110.09 116.838 109.376 116.838H106.996V119.68ZM117.242 125.168C115.086 125.168 113.798 123.67 113.798 121.332C113.798 119.022 115.044 117.524 117.186 117.524C119.468 117.524 120.518 119.204 120.518 121.206V121.794H115.66V121.976C115.66 123.026 116.262 123.74 117.438 123.74C118.32 123.74 118.852 123.32 119.3 122.746L120.266 123.824C119.664 124.65 118.6 125.168 117.242 125.168ZM117.214 118.868C116.276 118.868 115.66 119.568 115.66 120.576V120.688H118.656V120.562C118.656 119.554 118.138 118.868 117.214 118.868ZM128.848 125.616C128.848 127.142 127.812 127.968 125.012 127.968C122.548 127.968 121.61 127.324 121.61 126.246C121.61 125.434 122.1 124.972 122.912 124.846V124.692C122.31 124.538 121.974 124.062 121.974 123.474C121.974 122.718 122.618 122.34 123.318 122.186V122.13C122.436 121.724 121.988 120.968 121.988 120.002C121.988 118.518 123.038 117.524 125.012 117.524C125.46 117.524 125.922 117.58 126.286 117.706V117.468C126.286 116.754 126.65 116.404 127.322 116.404H128.456V117.776H126.902V117.972C127.658 118.392 128.036 119.106 128.036 120.002C128.036 121.472 127 122.452 125.012 122.452C124.592 122.452 124.214 122.41 123.892 122.326C123.612 122.452 123.374 122.662 123.374 122.984C123.374 123.348 123.682 123.53 124.326 123.53H126.286C128.078 123.53 128.848 124.3 128.848 125.616ZM127.168 125.826C127.168 125.364 126.832 125.084 125.922 125.084H123.43C123.164 125.28 123.052 125.546 123.052 125.84C123.052 126.4 123.472 126.736 124.592 126.736H125.488C126.65 126.736 127.168 126.442 127.168 125.826ZM125.012 121.234C125.866 121.234 126.328 120.842 126.328 120.114V119.876C126.328 119.134 125.866 118.756 125.012 118.756C124.158 118.756 123.696 119.134 123.696 119.876V120.114C123.696 120.842 124.158 121.234 125.012 121.234ZM130.939 116.628C130.197 116.628 129.889 116.25 129.889 115.732V115.452C129.889 114.934 130.197 114.556 130.939 114.556C131.667 114.556 131.989 114.934 131.989 115.452V115.732C131.989 116.25 131.667 116.628 130.939 116.628ZM130.043 125V117.692H131.835V125H130.043ZM136.97 125.168C134.884 125.168 133.582 123.684 133.582 121.332C133.582 118.994 134.884 117.524 136.97 117.524C139.07 117.524 140.372 118.994 140.372 121.332C140.372 123.684 139.07 125.168 136.97 125.168ZM136.97 123.726C137.908 123.726 138.496 123.124 138.496 122.018V120.66C138.496 119.568 137.908 118.966 136.97 118.966C136.046 118.966 135.458 119.568 135.458 120.66V122.018C135.458 123.124 136.046 123.726 136.97 123.726ZM143.913 125H142.121V117.692H143.913V118.91H143.983C144.277 118.126 144.893 117.524 146.027 117.524C147.525 117.524 148.365 118.56 148.365 120.38V125H146.573V120.562C146.573 119.526 146.223 118.994 145.369 118.994C144.627 118.994 143.913 119.386 143.913 120.17V125Z" fill="black"/>
</g>
<g id="Icon_2">
<g id="Location_2">
<rect width="24" height="24" transform="translate(64 108)" fill="white" fill-opacity="0.01" style="mix-blend-mode:multiply"/>
<g id="Vector_2">
<path d="M76 121.5C75.2583 121.5 74.5333 121.28 73.9166 120.868C73.2999 120.456 72.8193 119.87 72.5355 119.185C72.2516 118.5 72.1774 117.746 72.3221 117.018C72.4668 116.291 72.8239 115.623 73.3484 115.098C73.8728 114.574 74.541 114.217 75.2684 114.072C75.9958 113.927 76.7498 114.002 77.4351 114.285C78.1203 114.569 78.706 115.05 79.118 115.667C79.5301 116.283 79.75 117.008 79.75 117.75C79.7489 118.744 79.3534 119.697 78.6504 120.4C77.9474 121.103 76.9942 121.499 76 121.5ZM76 115.5C75.555 115.5 75.12 115.632 74.75 115.879C74.38 116.126 74.0916 116.478 73.9213 116.889C73.751 117.3 73.7064 117.752 73.7932 118.189C73.8801 118.625 74.0943 119.026 74.409 119.341C74.7237 119.656 75.1246 119.87 75.5611 119.957C75.9975 120.044 76.4499 119.999 76.861 119.829C77.2722 119.658 77.6236 119.37 77.8708 119C78.118 118.63 78.25 118.195 78.25 117.75C78.2494 117.153 78.0121 116.582 77.5903 116.16C77.1685 115.738 76.5965 115.501 76 115.5Z" fill="black"/>
<path d="M76 130.5L69.6734 123.038C69.6375 122.996 69.4122 122.7 69.4122 122.7C68.3314 121.276 67.7475 119.537 67.75 117.75C67.75 115.562 68.6192 113.464 70.1664 111.916C71.7136 110.369 73.812 109.5 76 109.5C78.188 109.5 80.2865 110.369 81.8336 111.916C83.3808 113.464 84.25 115.562 84.25 117.75C84.2527 119.537 83.6692 121.275 82.5889 122.698L82.5878 122.7C82.5878 122.7 82.3628 122.996 82.3293 123.035L76 130.5ZM70.6094 121.796C70.6094 121.796 70.7844 122.027 70.8243 122.077L76 128.181L81.1825 122.068C81.2154 122.027 81.3916 121.794 81.3916 121.794C82.2746 120.631 82.7517 119.21 82.75 117.75C82.75 115.96 82.0388 114.243 80.773 112.977C79.5071 111.711 77.7902 111 76 111C74.2098 111 72.4929 111.711 71.227 112.977C69.9612 114.243 69.25 115.96 69.25 117.75C69.2483 119.211 69.7259 120.632 70.6094 121.796Z" fill="black"/>
</g>
</g>
</g>
<line id="Border" x1="50" y1="96" x2="50" y2="144" stroke="#0F62FE" stroke-width="4"/>
</g>
</g>
<g id="Location_3">
<rect x="48.5" y="432.5" width="959" height="287" fill="white" fill-opacity="0.01" style="mix-blend-mode:multiply"/>
<rect x="48.5" y="432.5" width="959" height="287" stroke="#0F62FE"/>
<rect id="Background white_3" x="49" y="433" width="958" height="286" fill="white"/>
<rect id="Background color_2" x="49" y="433" width="958" height="286" fill="#EDF5FF"/>
<g id="Content_3" clip-path="url(#clip2_473_5139)">
<g id="Label + Text_3">
<path id="Label_3" d="M106.996 457.234V461H105.148V451.228H109.558C111.336 451.228 112.442 452.404 112.442 454.252C112.442 455.596 111.826 456.618 110.622 457.024L112.624 461H110.566L108.746 457.234H106.996ZM106.996 455.68H109.376C110.09 455.68 110.524 455.288 110.524 454.574V453.93C110.524 453.216 110.09 452.838 109.376 452.838H106.996V455.68ZM117.242 461.168C115.086 461.168 113.798 459.67 113.798 457.332C113.798 455.022 115.044 453.524 117.186 453.524C119.468 453.524 120.518 455.204 120.518 457.206V457.794H115.66V457.976C115.66 459.026 116.262 459.74 117.438 459.74C118.32 459.74 118.852 459.32 119.3 458.746L120.266 459.824C119.664 460.65 118.6 461.168 117.242 461.168ZM117.214 454.868C116.276 454.868 115.66 455.568 115.66 456.576V456.688H118.656V456.562C118.656 455.554 118.138 454.868 117.214 454.868ZM128.848 461.616C128.848 463.142 127.812 463.968 125.012 463.968C122.548 463.968 121.61 463.324 121.61 462.246C121.61 461.434 122.1 460.972 122.912 460.846V460.692C122.31 460.538 121.974 460.062 121.974 459.474C121.974 458.718 122.618 458.34 123.318 458.186V458.13C122.436 457.724 121.988 456.968 121.988 456.002C121.988 454.518 123.038 453.524 125.012 453.524C125.46 453.524 125.922 453.58 126.286 453.706V453.468C126.286 452.754 126.65 452.404 127.322 452.404H128.456V453.776H126.902V453.972C127.658 454.392 128.036 455.106 128.036 456.002C128.036 457.472 127 458.452 125.012 458.452C124.592 458.452 124.214 458.41 123.892 458.326C123.612 458.452 123.374 458.662 123.374 458.984C123.374 459.348 123.682 459.53 124.326 459.53H126.286C128.078 459.53 128.848 460.3 128.848 461.616ZM127.168 461.826C127.168 461.364 126.832 461.084 125.922 461.084H123.43C123.164 461.28 123.052 461.546 123.052 461.84C123.052 462.4 123.472 462.736 124.592 462.736H125.488C126.65 462.736 127.168 462.442 127.168 461.826ZM125.012 457.234C125.866 457.234 126.328 456.842 126.328 456.114V455.876C126.328 455.134 125.866 454.756 125.012 454.756C124.158 454.756 123.696 455.134 123.696 455.876V456.114C123.696 456.842 124.158 457.234 125.012 457.234ZM130.939 452.628C130.197 452.628 129.889 452.25 129.889 451.732V451.452C129.889 450.934 130.197 450.556 130.939 450.556C131.667 450.556 131.989 450.934 131.989 451.452V451.732C131.989 452.25 131.667 452.628 130.939 452.628ZM130.043 461V453.692H131.835V461H130.043ZM136.97 461.168C134.884 461.168 133.582 459.684 133.582 457.332C133.582 454.994 134.884 453.524 136.97 453.524C139.07 453.524 140.372 454.994 140.372 457.332C140.372 459.684 139.07 461.168 136.97 461.168ZM136.97 459.726C137.908 459.726 138.496 459.124 138.496 458.018V456.66C138.496 455.568 137.908 454.966 136.97 454.966C136.046 454.966 135.458 455.568 135.458 456.66V458.018C135.458 459.124 136.046 459.726 136.97 459.726ZM143.913 461H142.121V453.692H143.913V454.91H143.983C144.277 454.126 144.893 453.524 146.027 453.524C147.525 453.524 148.365 454.56 148.365 456.38V461H146.573V456.562C146.573 455.526 146.223 454.994 145.369 454.994C144.627 454.994 143.913 455.386 143.913 456.17V461Z" fill="black"/>
</g>
<g id="Icon_3">
<g id="Location_4">
<rect width="24" height="24" transform="translate(64 444)" fill="white" fill-opacity="0.01" style="mix-blend-mode:multiply"/>
<g id="Vector_3">
<path d="M76 457.5C75.2583 457.5 74.5333 457.28 73.9166 456.868C73.2999 456.456 72.8193 455.87 72.5355 455.185C72.2516 454.5 72.1774 453.746 72.3221 453.018C72.4668 452.291 72.8239 451.623 73.3484 451.098C73.8728 450.574 74.541 450.217 75.2684 450.072C75.9958 449.927 76.7498 450.002 77.4351 450.285C78.1203 450.569 78.706 451.05 79.118 451.667C79.5301 452.283 79.75 453.008 79.75 453.75C79.7489 454.744 79.3534 455.697 78.6504 456.4C77.9474 457.103 76.9942 457.499 76 457.5ZM76 451.5C75.555 451.5 75.12 451.632 74.75 451.879C74.38 452.126 74.0916 452.478 73.9213 452.889C73.751 453.3 73.7064 453.752 73.7932 454.189C73.8801 454.625 74.0943 455.026 74.409 455.341C74.7237 455.656 75.1246 455.87 75.5611 455.957C75.9975 456.044 76.4499 455.999 76.861 455.829C77.2722 455.658 77.6236 455.37 77.8708 455C78.118 454.63 78.25 454.195 78.25 453.75C78.2494 453.153 78.0121 452.582 77.5903 452.16C77.1685 451.738 76.5965 451.501 76 451.5Z" fill="black"/>
<path d="M76 466.5L69.6734 459.038C69.6375 458.996 69.4122 458.7 69.4122 458.7C68.3314 457.276 67.7475 455.537 67.75 453.75C67.75 451.562 68.6192 449.464 70.1664 447.916C71.7136 446.369 73.812 445.5 76 445.5C78.188 445.5 80.2865 446.369 81.8336 447.916C83.3808 449.464 84.25 451.562 84.25 453.75C84.2527 455.537 83.6692 457.275 82.5889 458.698L82.5878 458.7C82.5878 458.7 82.3628 458.996 82.3293 459.035L76 466.5ZM70.6094 457.796C70.6094 457.796 70.7844 458.027 70.8243 458.077L76 464.181L81.1825 458.068C81.2154 458.027 81.3916 457.794 81.3916 457.794C82.2746 456.631 82.7517 455.21 82.75 453.75C82.75 451.96 82.0388 450.243 80.773 448.977C79.5071 447.711 77.7902 447 76 447C74.2098 447 72.4929 447.711 71.227 448.977C69.9612 450.243 69.25 451.96 69.25 453.75C69.2483 455.211 69.7259 456.632 70.6094 457.796Z" fill="black"/>
</g>
</g>
</g>
<line id="Border_2" x1="50" y1="432" x2="50" y2="480" stroke="#0F62FE" stroke-width="4"/>
</g>
</g>
<g id="Frame 11">
<g id="Frame 5">
<g id="Location_5">
<rect width="208" height="192" transform="translate(64 176)" fill="white"/>
<rect id="Background white_4" x="64" y="176" width="208" height="192" fill="white"/>
<g id="Content_4" clip-path="url(#clip3_473_5139)">
<g id="Label + Text_4">
<path id="Label_4" d="M127.854 203.362V205H120.532V203.348L125.586 196.866H120.784V195.228H127.714V196.88L122.646 203.362H127.854ZM132.407 205.168C130.32 205.168 129.018 203.684 129.018 201.332C129.018 198.994 130.32 197.524 132.407 197.524C134.507 197.524 135.809 198.994 135.809 201.332C135.809 203.684 134.507 205.168 132.407 205.168ZM132.407 203.726C133.345 203.726 133.933 203.124 133.933 202.018V200.66C133.933 199.568 133.345 198.966 132.407 198.966C131.482 198.966 130.894 199.568 130.894 200.66V202.018C130.894 203.124 131.482 203.726 132.407 203.726ZM139.349 205H137.557V197.692H139.349V198.91H139.419C139.713 198.126 140.329 197.524 141.463 197.524C142.961 197.524 143.801 198.56 143.801 200.38V205H142.009V200.562C142.009 199.526 141.659 198.994 140.805 198.994C140.063 198.994 139.349 199.386 139.349 200.17V205ZM148.902 205.168C146.746 205.168 145.458 203.67 145.458 201.332C145.458 199.022 146.704 197.524 148.846 197.524C151.128 197.524 152.178 199.204 152.178 201.206V201.794H147.32V201.976C147.32 203.026 147.922 203.74 149.098 203.74C149.98 203.74 150.512 203.32 150.96 202.746L151.926 203.824C151.324 204.65 150.26 205.168 148.902 205.168ZM148.874 198.868C147.936 198.868 147.32 199.568 147.32 200.576V200.688H150.316V200.562C150.316 199.554 149.798 198.868 148.874 198.868ZM164.355 205H157.621V203.502H160.309V196.558H160.183L158.055 199.078L156.907 198.112L159.329 195.228H162.115V203.502H164.355V205Z" fill="black"/>
</g>
<g id="Icon_4">
<g id="Data--center">
<rect width="24" height="24" transform="translate(80 188)" fill="white" fill-opacity="0.01" style="mix-blend-mode:multiply"/>
<g id="Vector_4">
<path d="M101 195.5H97.25V192.5C97.2495 192.102 97.0914 191.721 96.8102 191.44C96.529 191.159 96.1477 191 95.75 191H88.25C87.8523 191 87.4711 191.159 87.1898 191.44C86.9086 191.721 86.7505 192.102 86.75 192.5V195.5H83C82.6023 195.5 82.221 195.659 81.9398 195.94C81.6586 196.221 81.5005 196.602 81.5 197V209C81.5005 209.398 81.6586 209.779 81.9398 210.06C82.221 210.341 82.6023 210.5 83 210.5H101C101.398 210.5 101.779 210.341 102.06 210.06C102.341 209.779 102.5 209.398 102.5 209V197C102.5 196.602 102.341 196.221 102.06 195.94C101.779 195.659 101.398 195.5 101 195.5ZM83 209V197H86.75V198.5H85.25V200H86.75V201.5H85.25V203H86.75V204.5H85.25V206H86.75V209H83ZM95.75 209H88.25V192.5H95.75V209ZM101 209H97.25V206H98.75V204.5H97.25V203H98.75V201.5H97.25V200H98.75V198.5H97.25V197H101V209Z" fill="black"/>
<path d="M93.5 194H90.5V195.5H93.5V194Z" fill="black"/>
<path d="M93.5 197H90.5V198.5H93.5V197Z" fill="black"/>
<path d="M93.5 200H90.5V201.5H93.5V200Z" fill="black"/>
</g>
</g>
</g>
</g>
<path id="Dash border" d="M70 176V176.5H74V176H78V176.5H82V176H86V176.5H90V176H94V176.5H98V176H102V176.5H106V176H110V176.5H114V176H118V176.5H122V176H126V176.5H130V176H134V176.5H138V176H142V176.5H146V176H150V176.5H154V176H158V176.5H162V176H166V176.5H170V176H174V176.5H178V176H182V176.5H186V176H190V176.5H194V176H198V176.5H202V176H206V176.5H210V176H214V176.5H218V176H222V176.5H226V176H230V176.5H234V176H238V176.5H242V176H246V176.5H250V176H254V176.5H258V176H262V176.5H266V176H270V176.5H271.5V178H272V182H271.5V186H272V190H271.5V194H272V198H271.5V202H272V206H271.5V210H272V214H271.5V218H272V222H271.5V226H272V230H271.5V234H272V238H271.5V242H272V246H271.5V250H272V254H271.5V258H272V262H271.5V266H272V270H271.5V274H272V278H271.5V282H272V286H271.5V290H272V294H271.5V298H272V302H271.5V306H272V310H271.5V314H272V318H271.5V322H272V326H271.5V330H272V334H271.5V338H272V342H271.5V346H272V350H271.5V354H272V358H271.5V362H272V366H271.5V367.5H270V368H266V367.5H262V368H258V367.5H254V368H250V367.5H246V368H242V367.5H238V368H234V367.5H230V368H226V367.5H222V368H218V367.5H214V368H210V367.5H206V368H202V367.5H198V368H194V367.5H190V368H186V367.5H182V368H178V367.5H174V368H170V367.5H166V368H162V367.5H158V368H154V367.5H150V368H146V367.5H142V368H138V367.5H134V368H130V367.5H126V368H122V367.5H118V368H114V367.5H110V368H106V367.5H102V368H98V367.5H94V368H90V367.5H86V368H82V367.5H78V368H74V367.5H70V368H66V367.5H64.5V366H64V362H64.5V358H64V354H64.5V350H64V346H64.5V342H64V338H64.5V334H64V330H64.5V326H64V322H64.5V318H64V314H64.5V310H64V306H64.5V302H64V298H64.5V294H64V290H64.5V286H64V282H64.5V278H64V274H64.5V270H64V266H64.5V262H64V258H64.5V254H64V250H64.5V246H64V242H64.5V238H64V234H64.5V230H64V226H64.5V222H64V218H64.5V214H64V210H64.5V206H64V202H64.5V198H64V194H64.5V190H64V186H64.5V182H64V178H64.5V176.5H66V176H70Z" stroke="black" stroke-dasharray="4 4"/>
</g>
<g id="Control plane">
<rect width="80" height="80" transform="translate(128 232)" fill="white" fill-opacity="0.01" style="mix-blend-mode:multiply"/>
<g id="Icon_5">
<path id="Background color_3" d="M152 235H184C188.418 235 192 238.582 192 243V275C192 279.418 188.418 283 184 283H152C147.582 283 144 279.418 144 275V243C144 238.582 147.582 235 152 235Z" fill="#0F62FE"/>
<g id="Database--postgresql">
<rect width="24" height="24" transform="translate(156 247)" fill="white" fill-opacity="0.01"/>
<g id="Vector_5">
<path d="M173.235 268.657C170.199 268.657 169.044 267.863 169.044 266.535C169.035 266.317 169.07 266.098 169.146 265.893C169.222 265.687 169.337 265.499 169.487 265.339C169.636 265.178 169.815 265.049 170.014 264.958C170.214 264.868 170.429 264.817 170.648 264.81V264.621C170.31 264.545 170.01 264.354 169.799 264.08C169.588 263.806 169.479 263.466 169.492 263.121C169.492 262.189 170.285 261.723 171.148 261.534V261.465C170.641 261.246 170.212 260.878 169.919 260.41C169.627 259.942 169.484 259.395 169.509 258.843C169.509 257.015 170.803 255.791 173.235 255.791C173.767 255.782 174.296 255.857 174.804 256.015V255.722C174.778 255.547 174.793 255.368 174.848 255.2C174.902 255.031 174.994 254.878 175.118 254.751C175.241 254.624 175.393 254.527 175.559 254.468C175.726 254.41 175.905 254.39 176.08 254.411H177.477V256.101H175.563V256.343C176.007 256.586 176.374 256.95 176.621 257.392C176.868 257.834 176.985 258.337 176.96 258.843C176.96 260.654 175.683 261.862 173.235 261.862C172.77 261.868 172.306 261.816 171.855 261.706C171.68 261.763 171.525 261.87 171.412 262.014C171.298 262.159 171.23 262.334 171.217 262.517C171.217 262.965 171.596 263.189 172.389 263.189H174.804C177.011 263.189 177.96 264.138 177.96 265.759C177.96 267.639 176.684 268.657 173.235 268.657ZM174.356 265.104H171.286C171.137 265.209 171.017 265.349 170.936 265.511C170.855 265.674 170.815 265.854 170.82 266.035C170.82 266.725 171.337 267.139 172.717 267.139H173.821C175.253 267.139 175.891 266.777 175.891 266.018C175.89 265.449 175.477 265.104 174.356 265.104ZM174.856 258.982V258.688C174.856 257.774 174.287 257.308 173.235 257.308C172.183 257.308 171.613 257.774 171.613 258.688V258.982C171.613 259.878 172.182 260.362 173.235 260.362C174.287 260.362 174.856 259.878 174.856 258.982Z" fill="white"/>
<path d="M159.452 265V252.963H164.867C167.092 252.963 168.437 254.463 168.437 256.688C168.437 258.93 167.092 260.413 164.867 260.413H161.729V265H159.452ZM161.729 258.447H164.661C164.847 258.469 165.037 258.45 165.215 258.39C165.393 258.331 165.556 258.232 165.691 258.102C165.827 257.971 165.931 257.812 165.998 257.636C166.064 257.46 166.09 257.272 166.075 257.084V256.291C166.09 256.104 166.063 255.917 165.996 255.742C165.93 255.567 165.825 255.41 165.689 255.281C165.554 255.152 165.391 255.055 165.213 254.997C165.035 254.939 164.846 254.921 164.661 254.946H161.729V258.447Z" fill="white"/>
</g>
</g>
</g>
<g id="Label + Text_5">
<path id="Label_5" d="M152.202 305H146.504V295.228H148.352V303.362H152.202V305ZM156.67 305.168C154.514 305.168 153.226 303.67 153.226 301.332C153.226 299.022 154.472 297.524 156.614 297.524C158.896 297.524 159.946 299.204 159.946 301.206V301.794H155.088V301.976C155.088 303.026 155.69 303.74 156.866 303.74C157.748 303.74 158.28 303.32 158.728 302.746L159.694 303.824C159.092 304.65 158.028 305.168 156.67 305.168ZM156.642 298.868C155.704 298.868 155.088 299.568 155.088 300.576V300.688H158.084V300.562C158.084 299.554 157.566 298.868 156.642 298.868ZM163.489 305.168C162.005 305.168 161.165 304.314 161.165 303.012C161.165 301.514 162.299 300.772 164.287 300.772H165.533V300.24C165.533 299.428 165.127 298.952 164.175 298.952C163.335 298.952 162.859 299.372 162.509 299.876L161.445 298.924C161.977 298.084 162.831 297.524 164.301 297.524C166.275 297.524 167.325 298.462 167.325 300.128V303.572H168.053V305H167.059C166.289 305 165.813 304.496 165.701 303.74H165.617C165.379 304.678 164.581 305.168 163.489 305.168ZM164.091 303.866C164.889 303.866 165.533 303.502 165.533 302.816V301.85H164.385C163.447 301.85 162.985 302.172 162.985 302.746V302.984C162.985 303.572 163.391 303.866 164.091 303.866ZM174.199 305V303.782H174.129C173.863 304.608 173.079 305.168 172.113 305.168C170.279 305.168 169.257 303.782 169.257 301.332C169.257 298.896 170.279 297.524 172.113 297.524C173.079 297.524 173.877 298.056 174.129 298.896H174.199V294.64H175.991V305H174.199ZM172.687 303.684C173.541 303.684 174.199 303.25 174.199 302.494V300.17C174.199 299.456 173.541 298.994 172.687 298.994C171.763 298.994 171.133 299.68 171.133 300.716V301.976C171.133 303.012 171.763 303.684 172.687 303.684ZM181.171 305.168C179.015 305.168 177.727 303.67 177.727 301.332C177.727 299.022 178.973 297.524 181.115 297.524C183.397 297.524 184.447 299.204 184.447 301.206V301.794H179.589V301.976C179.589 303.026 180.191 303.74 181.367 303.74C182.249 303.74 182.781 303.32 183.229 302.746L184.195 303.824C183.593 304.65 182.529 305.168 181.171 305.168ZM181.143 298.868C180.205 298.868 179.589 299.568 179.589 300.576V300.688H182.585V300.562C182.585 299.554 182.067 298.868 181.143 298.868ZM187.976 305H186.184V297.692H187.976V299.204H188.046C188.228 298.434 188.816 297.692 189.978 297.692H190.37V299.386H189.81C188.606 299.386 187.976 299.722 187.976 300.52V305Z" fill="black"/>
</g>
</g>
</g>
<g id="Frame 6">
<g id="Location_6">
<rect width="208" height="192" transform="translate(288 176)" fill="white"/>
<rect id="Background white_5" x="288" y="176" width="208" height="192" fill="white"/>
<g id="Content_5" clip-path="url(#clip4_473_5139)">
<g id="Label + Text_6">
<path id="Label_6" d="M351.854 203.362V205H344.532V203.348L349.586 196.866H344.784V195.228H351.714V196.88L346.646 203.362H351.854ZM356.407 205.168C354.32 205.168 353.018 203.684 353.018 201.332C353.018 198.994 354.32 197.524 356.407 197.524C358.507 197.524 359.809 198.994 359.809 201.332C359.809 203.684 358.507 205.168 356.407 205.168ZM356.407 203.726C357.345 203.726 357.933 203.124 357.933 202.018V200.66C357.933 199.568 357.345 198.966 356.407 198.966C355.482 198.966 354.894 199.568 354.894 200.66V202.018C354.894 203.124 355.482 203.726 356.407 203.726ZM363.349 205H361.557V197.692H363.349V198.91H363.419C363.713 198.126 364.329 197.524 365.463 197.524C366.961 197.524 367.801 198.56 367.801 200.38V205H366.009V200.562C366.009 199.526 365.659 198.994 364.805 198.994C364.063 198.994 363.349 199.386 363.349 200.17V205ZM372.902 205.168C370.746 205.168 369.458 203.67 369.458 201.332C369.458 199.022 370.704 197.524 372.846 197.524C375.128 197.524 376.178 199.204 376.178 201.206V201.794H371.32V201.976C371.32 203.026 371.922 203.74 373.098 203.74C373.98 203.74 374.512 203.32 374.96 202.746L375.926 203.824C375.324 204.65 374.26 205.168 372.902 205.168ZM372.874 198.868C371.936 198.868 371.32 199.568 371.32 200.576V200.688H374.316V200.562C374.316 199.554 373.798 198.868 372.874 198.868ZM387.991 203.446V205H381.215V203.292L384.281 200.604C385.317 199.694 385.793 199.022 385.793 198.168V197.986C385.793 197.132 385.149 196.656 384.351 196.656C383.343 196.656 382.867 197.314 382.643 198.112L381.047 197.496C381.467 196.194 382.517 195.06 384.505 195.06C386.563 195.06 387.739 196.292 387.739 197.972C387.739 199.596 386.633 200.632 385.275 201.752L383.217 203.446H387.991Z" fill="black"/>
</g>
<g id="Icon_6">
<g id="Data--center_2">
<rect width="24" height="24" transform="translate(304 188)" fill="white" fill-opacity="0.01" style="mix-blend-mode:multiply"/>
<g id="Vector_6">
<path d="M325 195.5H321.25V192.5C321.25 192.102 321.091 191.721 320.81 191.44C320.529 191.159 320.148 191 319.75 191H312.25C311.852 191 311.471 191.159 311.19 191.44C310.909 191.721 310.75 192.102 310.75 192.5V195.5H307C306.602 195.5 306.221 195.659 305.94 195.94C305.659 196.221 305.5 196.602 305.5 197V209C305.5 209.398 305.659 209.779 305.94 210.06C306.221 210.341 306.602 210.5 307 210.5H325C325.398 210.5 325.779 210.341 326.06 210.06C326.341 209.779 326.5 209.398 326.5 209V197C326.5 196.602 326.341 196.221 326.06 195.94C325.779 195.659 325.398 195.5 325 195.5ZM307 209V197H310.75V198.5H309.25V200H310.75V201.5H309.25V203H310.75V204.5H309.25V206H310.75V209H307ZM319.75 209H312.25V192.5H319.75V209ZM325 209H321.25V206H322.75V204.5H321.25V203H322.75V201.5H321.25V200H322.75V198.5H321.25V197H325V209Z" fill="black"/>
<path d="M317.5 194H314.5V195.5H317.5V194Z" fill="black"/>
<path d="M317.5 197H314.5V198.5H317.5V197Z" fill="black"/>
<path d="M317.5 200H314.5V201.5H317.5V200Z" fill="black"/>
</g>
</g>
</g>
</g>
<path id="Dash border_2" d="M294 176V176.5H298V176H302V176.5H306V176H310V176.5H314V176H318V176.5H322V176H326V176.5H330V176H334V176.5H338V176H342V176.5H346V176H350V176.5H354V176H358V176.5H362V176H366V176.5H370V176H374V176.5H378V176H382V176.5H386V176H390V176.5H394V176H398V176.5H402V176H406V176.5H410V176H414V176.5H418V176H422V176.5H426V176H430V176.5H434V176H438V176.5H442V176H446V176.5H450V176H454V176.5H458V176H462V176.5H466V176H470V176.5H474V176H478V176.5H482V176H486V176.5H490V176H494V176.5H495.5V178H496V182H495.5V186H496V190H495.5V194H496V198H495.5V202H496V206H495.5V210H496V214H495.5V218H496V222H495.5V226H496V230H495.5V234H496V238H495.5V242H496V246H495.5V250H496V254H495.5V258H496V262H495.5V266H496V270H495.5V274H496V278H495.5V282H496V286H495.5V290H496V294H495.5V298H496V302H495.5V306H496V310H495.5V314H496V318H495.5V322H496V326H495.5V330H496V334H495.5V338H496V342H495.5V346H496V350H495.5V354H496V358H495.5V362H496V366H495.5V367.5H494V368H490V367.5H486V368H482V367.5H478V368H474V367.5H470V368H466V367.5H462V368H458V367.5H454V368H450V367.5H446V368H442V367.5H438V368H434V367.5H430V368H426V367.5H422V368H418V367.5H414V368H410V367.5H406V368H402V367.5H398V368H394V367.5H390V368H386V367.5H382V368H378V367.5H374V368H370V367.5H366V368H362V367.5H358V368H354V367.5H350V368H346V367.5H342V368H338V367.5H334V368H330V367.5H326V368H322V367.5H318V368H314V367.5H310V368H306V367.5H302V368H298V367.5H294V368H290V367.5H288.5V366H288V362H288.5V358H288V354H288.5V350H288V346H288.5V342H288V338H288.5V334H288V330H288.5V326H288V322H288.5V318H288V314H288.5V310H288V306H288.5V302H288V298H288.5V294H288V290H288.5V286H288V282H288.5V278H288V274H288.5V270H288V266H288.5V262H288V258H288.5V254H288V250H288.5V246H288V242H288.5V238H288V234H288.5V230H288V226H288.5V222H288V218H288.5V214H288V210H288.5V206H288V202H288.5V198H288V194H288.5V190H288V186H288.5V182H288V178H288.5V176.5H290V176H294Z" stroke="black" stroke-dasharray="4 4"/>
</g>
<g id="Control plane_2">
<rect width="80" height="80" transform="translate(352 232)" fill="white" fill-opacity="0.01" style="mix-blend-mode:multiply"/>
<g id="Icon_7">
<path id="Background color_4" d="M376 235H408C412.418 235 416 238.582 416 243V275C416 279.418 412.418 283 408 283H376C371.582 283 368 279.418 368 275V243C368 238.582 371.582 235 376 235Z" fill="#0F62FE"/>
<g id="Database--postgresql_2">
<rect width="24" height="24" transform="translate(380 247)" fill="white" fill-opacity="0.01"/>
<g id="Vector_7">
<path d="M397.235 268.657C394.199 268.657 393.044 267.863 393.044 266.535C393.035 266.317 393.07 266.098 393.146 265.893C393.222 265.687 393.337 265.499 393.487 265.339C393.636 265.178 393.815 265.049 394.014 264.958C394.214 264.868 394.429 264.817 394.648 264.81V264.621C394.31 264.545 394.01 264.354 393.799 264.08C393.588 263.806 393.479 263.466 393.492 263.121C393.492 262.189 394.285 261.723 395.148 261.534V261.465C394.641 261.246 394.212 260.878 393.919 260.41C393.627 259.942 393.484 259.395 393.509 258.843C393.509 257.015 394.803 255.791 397.235 255.791C397.767 255.782 398.296 255.857 398.804 256.015V255.722C398.778 255.547 398.793 255.368 398.848 255.2C398.902 255.031 398.994 254.878 399.118 254.751C399.241 254.624 399.393 254.527 399.559 254.468C399.726 254.41 399.905 254.39 400.08 254.411H401.477V256.101H399.563V256.343C400.007 256.586 400.374 256.95 400.621 257.392C400.868 257.834 400.985 258.337 400.96 258.843C400.96 260.654 399.683 261.862 397.235 261.862C396.77 261.868 396.306 261.816 395.855 261.706C395.68 261.763 395.525 261.87 395.412 262.014C395.298 262.159 395.23 262.334 395.217 262.517C395.217 262.965 395.596 263.189 396.389 263.189H398.804C401.011 263.189 401.96 264.138 401.96 265.759C401.96 267.639 400.684 268.657 397.235 268.657ZM398.356 265.104H395.286C395.137 265.209 395.017 265.349 394.936 265.511C394.855 265.674 394.815 265.854 394.82 266.035C394.82 266.725 395.337 267.139 396.717 267.139H397.821C399.253 267.139 399.891 266.777 399.891 266.018C399.89 265.449 399.477 265.104 398.356 265.104ZM398.856 258.982V258.688C398.856 257.774 398.287 257.308 397.235 257.308C396.183 257.308 395.613 257.774 395.613 258.688V258.982C395.613 259.878 396.182 260.362 397.235 260.362C398.287 260.362 398.856 259.878 398.856 258.982Z" fill="white"/>
<path d="M383.452 265V252.963H388.867C391.092 252.963 392.437 254.463 392.437 256.688C392.437 258.93 391.092 260.413 388.867 260.413H385.729V265H383.452ZM385.729 258.447H388.661C388.847 258.469 389.037 258.45 389.215 258.39C389.393 258.331 389.556 258.232 389.691 258.102C389.827 257.971 389.931 257.812 389.998 257.636C390.064 257.46 390.09 257.272 390.075 257.084V256.291C390.09 256.104 390.063 255.917 389.996 255.742C389.93 255.567 389.825 255.41 389.689 255.281C389.554 255.152 389.391 255.055 389.213 254.997C389.035 254.939 388.846 254.921 388.661 254.946H385.729V258.447Z" fill="white"/>
</g>
</g>
</g>
<g id="Label + Text_7">
<path id="Label_7" d="M366.388 305H364.54V295.228H370.826V296.866H366.388V299.232H370.252V300.87H366.388V305ZM375.142 305.168C373.056 305.168 371.754 303.684 371.754 301.332C371.754 298.994 373.056 297.524 375.142 297.524C377.242 297.524 378.544 298.994 378.544 301.332C378.544 303.684 377.242 305.168 375.142 305.168ZM375.142 303.726C376.08 303.726 376.668 303.124 376.668 302.018V300.66C376.668 299.568 376.08 298.966 375.142 298.966C374.218 298.966 373.63 299.568 373.63 300.66V302.018C373.63 303.124 374.218 303.726 375.142 303.726ZM383.051 305H382.085C380.867 305 380.293 304.356 380.293 303.236V294.64H382.085V303.572H383.051V305ZM387.231 305H386.265C385.047 305 384.473 304.356 384.473 303.236V294.64H386.265V303.572H387.231V305ZM391.646 305.168C389.56 305.168 388.258 303.684 388.258 301.332C388.258 298.994 389.56 297.524 391.646 297.524C393.746 297.524 395.048 298.994 395.048 301.332C395.048 303.684 393.746 305.168 391.646 305.168ZM391.646 303.726C392.584 303.726 393.172 303.124 393.172 302.018V300.66C393.172 299.568 392.584 298.966 391.646 298.966C390.722 298.966 390.134 299.568 390.134 300.66V302.018C390.134 303.124 390.722 303.726 391.646 303.726ZM397.975 305L395.959 297.692H397.681L398.423 300.702L398.997 303.208H399.053L399.725 300.702L400.579 297.692H402.203L403.085 300.702L403.771 303.208H403.827L404.401 300.702L405.129 297.692H406.795L404.793 305H402.861L401.923 301.78L401.377 299.792H401.335L400.803 301.78L399.879 305H397.975ZM411.135 305.168C408.979 305.168 407.691 303.67 407.691 301.332C407.691 299.022 408.937 297.524 411.079 297.524C413.361 297.524 414.411 299.204 414.411 301.206V301.794H409.553V301.976C409.553 303.026 410.155 303.74 411.331 303.74C412.213 303.74 412.745 303.32 413.193 302.746L414.159 303.824C413.557 304.65 412.493 305.168 411.135 305.168ZM411.107 298.868C410.169 298.868 409.553 299.568 409.553 300.576V300.688H412.549V300.562C412.549 299.554 412.031 298.868 411.107 298.868ZM417.94 305H416.148V297.692H417.94V299.204H418.01C418.192 298.434 418.78 297.692 419.942 297.692H420.334V299.386H419.774C418.57 299.386 417.94 299.722 417.94 300.52V305Z" fill="black"/>
</g>
</g>
</g>
<g id="Frame 8">
<g id="Location_7">
<rect width="208" height="192" transform="translate(512 176)" fill="white"/>
<rect id="Background white_6" x="512" y="176" width="208" height="192" fill="white"/>
<g id="Content_6" clip-path="url(#clip5_473_5139)">
<g id="Label + Text_8">
<path id="Label_8" d="M575.854 203.362V205H568.532V203.348L573.586 196.866H568.784V195.228H575.714V196.88L570.646 203.362H575.854ZM580.407 205.168C578.32 205.168 577.018 203.684 577.018 201.332C577.018 198.994 578.32 197.524 580.407 197.524C582.507 197.524 583.809 198.994 583.809 201.332C583.809 203.684 582.507 205.168 580.407 205.168ZM580.407 203.726C581.345 203.726 581.933 203.124 581.933 202.018V200.66C581.933 199.568 581.345 198.966 580.407 198.966C579.482 198.966 578.894 199.568 578.894 200.66V202.018C578.894 203.124 579.482 203.726 580.407 203.726ZM587.349 205H585.557V197.692H587.349V198.91H587.419C587.713 198.126 588.329 197.524 589.463 197.524C590.961 197.524 591.801 198.56 591.801 200.38V205H590.009V200.562C590.009 199.526 589.659 198.994 588.805 198.994C588.063 198.994 587.349 199.386 587.349 200.17V205ZM596.902 205.168C594.746 205.168 593.458 203.67 593.458 201.332C593.458 199.022 594.704 197.524 596.846 197.524C599.128 197.524 600.178 199.204 600.178 201.206V201.794H595.32V201.976C595.32 203.026 595.922 203.74 597.098 203.74C597.98 203.74 598.512 203.32 598.96 202.746L599.926 203.824C599.324 204.65 598.26 205.168 596.902 205.168ZM596.874 198.868C595.936 198.868 595.32 199.568 595.32 200.576V200.688H598.316V200.562C598.316 199.554 597.798 198.868 596.874 198.868ZM607.049 199.176H608.015C609.135 199.176 609.653 198.658 609.653 197.958V197.86C609.653 197.062 609.093 196.572 608.211 196.572C607.357 196.572 606.685 197.006 606.209 197.748L605.033 196.684C605.691 195.774 606.615 195.06 608.267 195.06C610.241 195.06 611.585 196.04 611.585 197.608C611.585 198.868 610.731 199.624 609.709 199.834V199.918C610.843 200.128 611.753 200.912 611.753 202.298C611.753 204.02 610.311 205.168 608.155 205.168C606.251 205.168 605.299 204.3 604.683 203.348L606.041 202.312C606.475 203.096 607.063 203.656 608.155 203.656C609.233 203.656 609.835 203.096 609.835 202.186V202.088C609.835 201.192 609.177 200.716 608.015 200.716H607.049V199.176Z" fill="black"/>
</g>
<g id="Icon_8">
<g id="Data--center_3">
<rect width="24" height="24" transform="translate(528 188)" fill="white" fill-opacity="0.01" style="mix-blend-mode:multiply"/>
<g id="Vector_8">
<path d="M549 195.5H545.25V192.5C545.25 192.102 545.091 191.721 544.81 191.44C544.529 191.159 544.148 191 543.75 191H536.25C535.852 191 535.471 191.159 535.19 191.44C534.909 191.721 534.75 192.102 534.75 192.5V195.5H531C530.602 195.5 530.221 195.659 529.94 195.94C529.659 196.221 529.5 196.602 529.5 197V209C529.5 209.398 529.659 209.779 529.94 210.06C530.221 210.341 530.602 210.5 531 210.5H549C549.398 210.5 549.779 210.341 550.06 210.06C550.341 209.779 550.5 209.398 550.5 209V197C550.5 196.602 550.341 196.221 550.06 195.94C549.779 195.659 549.398 195.5 549 195.5ZM531 209V197H534.75V198.5H533.25V200H534.75V201.5H533.25V203H534.75V204.5H533.25V206H534.75V209H531ZM543.75 209H536.25V192.5H543.75V209ZM549 209H545.25V206H546.75V204.5H545.25V203H546.75V201.5H545.25V200H546.75V198.5H545.25V197H549V209Z" fill="black"/>
<path d="M541.5 194H538.5V195.5H541.5V194Z" fill="black"/>
<path d="M541.5 197H538.5V198.5H541.5V197Z" fill="black"/>
<path d="M541.5 200H538.5V201.5H541.5V200Z" fill="black"/>
</g>
</g>
</g>
</g>
<path id="Dash border_3" d="M518 176V176.5H522V176H526V176.5H530V176H534V176.5H538V176H542V176.5H546V176H550V176.5H554V176H558V176.5H562V176H566V176.5H570V176H574V176.5H578V176H582V176.5H586V176H590V176.5H594V176H598V176.5H602V176H606V176.5H610V176H614V176.5H618V176H622V176.5H626V176H630V176.5H634V176H638V176.5H642V176H646V176.5H650V176H654V176.5H658V176H662V176.5H666V176H670V176.5H674V176H678V176.5H682V176H686V176.5H690V176H694V176.5H698V176H702V176.5H706V176H710V176.5H714V176H718V176.5H719.5V178H720V182H719.5V186H720V190H719.5V194H720V198H719.5V202H720V206H719.5V210H720V214H719.5V218H720V222H719.5V226H720V230H719.5V234H720V238H719.5V242H720V246H719.5V250H720V254H719.5V258H720V262H719.5V266H720V270H719.5V274H720V278H719.5V282H720V286H719.5V290H720V294H719.5V298H720V302H719.5V306H720V310H719.5V314H720V318H719.5V322H720V326H719.5V330H720V334H719.5V338H720V342H719.5V346H720V350H719.5V354H720V358H719.5V362H720V366H719.5V367.5H718V368H714V367.5H710V368H706V367.5H702V368H698V367.5H694V368H690V367.5H686V368H682V367.5H678V368H674V367.5H670V368H666V367.5H662V368H658V367.5H654V368H650V367.5H646V368H642V367.5H638V368H634V367.5H630V368H626V367.5H622V368H618V367.5H614V368H610V367.5H606V368H602V367.5H598V368H594V367.5H590V368H586V367.5H582V368H578V367.5H574V368H570V367.5H566V368H562V367.5H558V368H554V367.5H550V368H546V367.5H542V368H538V367.5H534V368H530V367.5H526V368H522V367.5H518V368H514V367.5H512.5V366H512V362H512.5V358H512V354H512.5V350H512V346H512.5V342H512V338H512.5V334H512V330H512.5V326H512V322H512.5V318H512V314H512.5V310H512V306H512.5V302H512V298H512.5V294H512V290H512.5V286H512V282H512.5V278H512V274H512.5V270H512V266H512.5V262H512V258H512.5V254H512V250H512.5V246H512V242H512.5V238H512V234H512.5V230H512V226H512.5V222H512V218H512.5V214H512V210H512.5V206H512V202H512.5V198H512V194H512.5V190H512V186H512.5V182H512V178H512.5V176.5H514V176H518Z" stroke="black" stroke-dasharray="4 4"/>
</g>
<g id="Control plane_3">
<rect width="82" height="96" transform="translate(576 224)" fill="white" fill-opacity="0.01" style="mix-blend-mode:multiply"/>
<g id="Icon_9">
<path id="Background color_5" d="M601 226H633C637.418 226 641 229.582 641 234V266C641 270.418 637.418 274 633 274H601C596.582 274 593 270.418 593 266V234C593 229.582 596.582 226 601 226Z" fill="#8D8D8D"/>
<g id="Database--postgresql_3">
<rect width="24" height="24" transform="translate(605 238)" fill="white" fill-opacity="0.01"/>
<g id="Vector_9">
<path d="M622.235 259.657C619.199 259.657 618.044 258.863 618.044 257.535C618.035 257.317 618.07 257.098 618.146 256.893C618.222 256.687 618.337 256.499 618.487 256.339C618.636 256.178 618.815 256.049 619.014 255.958C619.214 255.868 619.429 255.817 619.648 255.81V255.621C619.31 255.545 619.01 255.354 618.799 255.08C618.588 254.806 618.479 254.466 618.492 254.121C618.492 253.189 619.285 252.723 620.148 252.534V252.465C619.641 252.246 619.212 251.878 618.919 251.41C618.627 250.942 618.484 250.395 618.509 249.843C618.509 248.015 619.803 246.791 622.235 246.791C622.767 246.782 623.296 246.857 623.804 247.015V246.722C623.778 246.547 623.793 246.368 623.848 246.2C623.902 246.031 623.994 245.878 624.118 245.751C624.241 245.624 624.393 245.527 624.559 245.468C624.726 245.41 624.905 245.39 625.08 245.411H626.477V247.101H624.563V247.343C625.007 247.586 625.374 247.95 625.621 248.392C625.868 248.834 625.985 249.337 625.96 249.843C625.96 251.654 624.683 252.862 622.235 252.862C621.77 252.868 621.306 252.816 620.855 252.706C620.68 252.763 620.525 252.87 620.412 253.014C620.298 253.159 620.23 253.334 620.217 253.517C620.217 253.965 620.596 254.189 621.389 254.189H623.804C626.011 254.189 626.96 255.138 626.96 256.759C626.96 258.639 625.684 259.657 622.235 259.657ZM623.356 256.104H620.286C620.137 256.209 620.017 256.349 619.936 256.511C619.855 256.674 619.815 256.854 619.82 257.035C619.82 257.725 620.337 258.139 621.717 258.139H622.821C624.253 258.139 624.891 257.777 624.891 257.018C624.89 256.449 624.477 256.104 623.356 256.104ZM623.856 249.982V249.688C623.856 248.774 623.287 248.308 622.235 248.308C621.183 248.308 620.613 248.774 620.613 249.688V249.982C620.613 250.878 621.182 251.362 622.235 251.362C623.287 251.362 623.856 250.878 623.856 249.982Z" fill="white"/>
<path d="M608.452 256V243.963H613.867C616.092 243.963 617.437 245.463 617.437 247.688C617.437 249.93 616.092 251.413 613.867 251.413H610.729V256H608.452ZM610.729 249.447H613.661C613.847 249.469 614.037 249.45 614.215 249.39C614.393 249.331 614.556 249.232 614.691 249.102C614.827 248.971 614.931 248.812 614.998 248.636C615.064 248.46 615.09 248.272 615.075 248.084V247.291C615.09 247.104 615.063 246.917 614.996 246.742C614.93 246.567 614.825 246.41 614.689 246.281C614.554 246.152 614.391 246.055 614.213 245.997C614.035 245.939 613.846 245.921 613.661 245.946H610.729V249.447Z" fill="white"/>
</g>
</g>
</g>
<g id="Label + Text_9">
<path id="Label_9" d="M593.624 296.168C591.062 296.168 589.368 294.418 589.368 291.114C589.368 287.81 591.062 286.06 593.624 286.06C596.2 286.06 597.88 287.81 597.88 291.114C597.88 294.418 596.2 296.168 593.624 296.168ZM593.624 294.53C595.024 294.53 595.92 293.536 595.92 291.87V290.358C595.92 288.692 595.024 287.698 593.624 287.698C592.224 287.698 591.328 288.692 591.328 290.358V291.87C591.328 293.536 592.224 294.53 593.624 294.53ZM599.803 298.8V288.692H601.595V289.896H601.651C601.917 289.056 602.701 288.524 603.667 288.524C605.515 288.524 606.537 289.896 606.537 292.332C606.537 294.782 605.515 296.168 603.667 296.168C602.701 296.168 601.931 295.608 601.651 294.782H601.595V298.8H599.803ZM603.093 294.684C604.017 294.684 604.661 294.012 604.661 292.976V291.716C604.661 290.68 604.017 289.994 603.093 289.994C602.239 289.994 601.595 290.456 601.595 291.17V293.494C601.595 294.25 602.239 294.684 603.093 294.684ZM610.558 296C609.326 296 608.668 295.328 608.668 294.138V290.12H607.59V288.692H608.15C608.682 288.692 608.85 288.44 608.85 287.936V286.69H610.46V288.692H611.958V290.12H610.46V294.572H611.846V296H610.558ZM614.568 287.628C613.826 287.628 613.518 287.25 613.518 286.732V286.452C613.518 285.934 613.826 285.556 614.568 285.556C615.296 285.556 615.618 285.934 615.618 286.452V286.732C615.618 287.25 615.296 287.628 614.568 287.628ZM613.672 296V288.692H615.464V296H613.672ZM620.599 296.168C618.513 296.168 617.211 294.684 617.211 292.332C617.211 289.994 618.513 288.524 620.599 288.524C622.699 288.524 624.001 289.994 624.001 292.332C624.001 294.684 622.699 296.168 620.599 296.168ZM620.599 294.726C621.537 294.726 622.125 294.124 622.125 293.018V291.66C622.125 290.568 621.537 289.966 620.599 289.966C619.675 289.966 619.087 290.568 619.087 291.66V293.018C619.087 294.124 619.675 294.726 620.599 294.726ZM627.542 296H625.75V288.692H627.542V289.91H627.612C627.906 289.126 628.522 288.524 629.656 288.524C631.154 288.524 631.994 289.56 631.994 291.38V296H630.202V291.562C630.202 290.526 629.852 289.994 628.998 289.994C628.256 289.994 627.542 290.386 627.542 291.17V296ZM635.946 296.168C634.462 296.168 633.622 295.314 633.622 294.012C633.622 292.514 634.756 291.772 636.744 291.772H637.99V291.24C637.99 290.428 637.584 289.952 636.632 289.952C635.792 289.952 635.316 290.372 634.966 290.876L633.902 289.924C634.434 289.084 635.288 288.524 636.758 288.524C638.732 288.524 639.782 289.462 639.782 291.128V294.572H640.51V296H639.516C638.746 296 638.27 295.496 638.158 294.74H638.074C637.836 295.678 637.038 296.168 635.946 296.168ZM636.548 294.866C637.346 294.866 637.99 294.502 637.99 293.816V292.85H636.842C635.904 292.85 635.442 293.172 635.442 293.746V293.984C635.442 294.572 635.848 294.866 636.548 294.866ZM644.878 296H643.912C642.694 296 642.12 295.356 642.12 294.236V285.64H643.912V294.572H644.878V296ZM579.04 308.176H580.006C581.126 308.176 581.644 307.658 581.644 306.958V306.86C581.644 306.062 581.084 305.572 580.202 305.572C579.348 305.572 578.676 306.006 578.2 306.748L577.024 305.684C577.682 304.774 578.606 304.06 580.258 304.06C582.232 304.06 583.576 305.04 583.576 306.608C583.576 307.868 582.722 308.624 581.7 308.834V308.918C582.834 309.128 583.744 309.912 583.744 311.298C583.744 313.02 582.302 314.168 580.146 314.168C578.242 314.168 577.29 313.3 576.674 312.348L578.032 311.312C578.466 312.096 579.054 312.656 580.146 312.656C581.224 312.656 581.826 312.096 581.826 311.186V311.088C581.826 310.192 581.168 309.716 580.006 309.716H579.04V308.176ZM587.72 314H585.928V306.692H587.72V308.204H587.79C587.972 307.434 588.56 306.692 589.722 306.692H590.114V308.386H589.554C588.35 308.386 587.72 308.722 587.72 309.52V314ZM596.052 314V312.782H595.982C595.716 313.608 594.932 314.168 593.966 314.168C592.132 314.168 591.11 312.782 591.11 310.332C591.11 307.896 592.132 306.524 593.966 306.524C594.932 306.524 595.73 307.056 595.982 307.896H596.052V303.64H597.844V314H596.052ZM594.54 312.684C595.394 312.684 596.052 312.25 596.052 311.494V309.17C596.052 308.456 595.394 307.994 594.54 307.994C593.616 307.994 592.986 308.68 592.986 309.716V310.976C592.986 312.012 593.616 312.684 594.54 312.684ZM605.331 314H603.539V306.692H605.331V307.91H605.401C605.681 307.14 606.269 306.524 607.361 306.524C608.355 306.524 609.125 307.014 609.475 307.994H609.503C609.769 307.182 610.581 306.524 611.743 306.524C613.171 306.524 613.983 307.56 613.983 309.38V314H612.191V309.562C612.191 308.512 611.813 307.994 611.015 307.994C610.315 307.994 609.657 308.386 609.657 309.17V314H607.865V309.562C607.865 308.512 607.487 307.994 606.689 307.994C606.003 307.994 605.331 308.386 605.331 309.17V314ZM619.081 314.168C616.925 314.168 615.637 312.67 615.637 310.332C615.637 308.022 616.883 306.524 619.025 306.524C621.307 306.524 622.357 308.204 622.357 310.206V310.794H617.499V310.976C617.499 312.026 618.101 312.74 619.277 312.74C620.159 312.74 620.691 312.32 621.139 311.746L622.105 312.824C621.503 313.65 620.439 314.168 619.081 314.168ZM619.053 307.868C618.115 307.868 617.499 308.568 617.499 309.576V309.688H620.495V309.562C620.495 308.554 619.977 307.868 619.053 307.868ZM625.885 314H624.093V306.692H625.885V307.91H625.955C626.235 307.14 626.823 306.524 627.915 306.524C628.909 306.524 629.679 307.014 630.029 307.994H630.057C630.323 307.182 631.135 306.524 632.297 306.524C633.725 306.524 634.537 307.56 634.537 309.38V314H632.745V309.562C632.745 308.512 632.367 307.994 631.569 307.994C630.869 307.994 630.211 308.386 630.211 309.17V314H628.419V309.562C628.419 308.512 628.041 307.994 627.243 307.994C626.557 307.994 625.885 308.386 625.885 309.17V314ZM636.681 314V303.64H638.473V307.896H638.529C638.795 307.056 639.579 306.524 640.545 306.524C642.393 306.524 643.415 307.896 643.415 310.332C643.415 312.782 642.393 314.168 640.545 314.168C639.579 314.168 638.809 313.608 638.529 312.782H638.473V314H636.681ZM639.971 312.684C640.895 312.684 641.539 312.012 641.539 310.976V309.716C641.539 308.68 640.895 307.994 639.971 307.994C639.117 307.994 638.473 308.456 638.473 309.17V311.494C638.473 312.25 639.117 312.684 639.971 312.684ZM648.19 314.168C646.034 314.168 644.746 312.67 644.746 310.332C644.746 308.022 645.992 306.524 648.134 306.524C650.416 306.524 651.466 308.204 651.466 310.206V310.794H646.608V310.976C646.608 312.026 647.21 312.74 648.386 312.74C649.268 312.74 649.8 312.32 650.248 311.746L651.214 312.824C650.612 313.65 649.548 314.168 648.19 314.168ZM648.162 307.868C647.224 307.868 646.608 308.568 646.608 309.576V309.688H649.604V309.562C649.604 308.554 649.086 307.868 648.162 307.868ZM654.994 314H653.202V306.692H654.994V308.204H655.064C655.246 307.434 655.834 306.692 656.996 306.692H657.388V308.386H656.828C655.624 308.386 654.994 308.722 654.994 309.52V314Z" fill="black"/>
</g>
</g>
</g>
</g>
<g id="Group 1">
<g id="Location_8">
<rect x="768.5" y="176.5" width="207" height="527" stroke="#0F62FE"/>
<g id="Content_7" clip-path="url(#clip6_473_5139)">
<g id="Label + Text_10">
<path id="Label_10" d="M825.148 205V195.228H829.67C831.28 195.228 832.26 196.222 832.26 197.734C832.26 199.218 831.406 199.778 830.51 199.834V199.918C831.364 199.932 832.624 200.534 832.624 202.2C832.624 203.768 831.546 205 830.104 205H825.148ZM826.996 200.814V203.432H829.572C830.272 203.432 830.692 203.054 830.692 202.368V201.892C830.692 201.206 830.272 200.814 829.572 200.814H826.996ZM826.996 196.796V199.302H829.278C829.95 199.302 830.342 198.91 830.342 198.266V197.832C830.342 197.174 829.95 196.796 829.278 196.796H826.996ZM836.285 205.168C834.801 205.168 833.961 204.314 833.961 203.012C833.961 201.514 835.095 200.772 837.083 200.772H838.329V200.24C838.329 199.428 837.923 198.952 836.971 198.952C836.131 198.952 835.655 199.372 835.305 199.876L834.241 198.924C834.773 198.084 835.627 197.524 837.097 197.524C839.071 197.524 840.121 198.462 840.121 200.128V203.572H840.849V205H839.855C839.085 205 838.609 204.496 838.497 203.74H838.413C838.175 204.678 837.377 205.168 836.285 205.168ZM836.887 203.866C837.685 203.866 838.329 203.502 838.329 202.816V201.85H837.181C836.243 201.85 835.781 202.172 835.781 202.746V202.984C835.781 203.572 836.187 203.866 836.887 203.866ZM845.344 205.168C843.188 205.168 841.97 203.684 841.97 201.332C841.97 198.994 843.188 197.524 845.344 197.524C846.814 197.524 847.78 198.224 848.214 199.372L846.744 200.03C846.576 199.414 846.114 198.966 845.344 198.966C844.35 198.966 843.846 199.666 843.846 200.688V202.018C843.846 203.04 844.35 203.726 845.344 203.726C846.198 203.726 846.618 203.236 846.884 202.578L848.256 203.236C847.78 204.524 846.758 205.168 845.344 205.168ZM849.797 205V194.64H851.589V200.884H851.659L852.625 199.568L854.263 197.692H856.293L853.773 200.52L856.559 205H854.431L852.555 201.724L851.589 202.774V205H849.797ZM862.05 205V203.782H861.98C861.728 204.51 861.14 205.168 859.936 205.168C858.438 205.168 857.598 204.132 857.598 202.312V197.692H859.39V202.13C859.39 203.138 859.768 203.684 860.622 203.684C861.336 203.684 862.05 203.306 862.05 202.522V197.692H863.842V205H862.05ZM866.072 207.8V197.692H867.864V198.896H867.92C868.186 198.056 868.97 197.524 869.936 197.524C871.784 197.524 872.806 198.896 872.806 201.332C872.806 203.782 871.784 205.168 869.936 205.168C868.97 205.168 868.2 204.608 867.92 203.782H867.864V207.8H866.072ZM869.362 203.684C870.286 203.684 870.93 203.012 870.93 201.976V200.716C870.93 199.68 870.286 198.994 869.362 198.994C868.508 198.994 867.864 199.456 867.864 200.17V202.494C867.864 203.25 868.508 203.684 869.362 203.684ZM877.021 205.168C875.635 205.168 874.725 204.664 873.997 203.824L875.089 202.76C875.621 203.376 876.265 203.754 877.091 203.754C877.945 203.754 878.309 203.432 878.309 202.914C878.309 202.494 878.057 202.228 877.413 202.144L876.685 202.046C875.117 201.85 874.249 201.164 874.249 199.834C874.249 198.42 875.355 197.524 877.021 197.524C878.449 197.524 879.177 197.944 879.877 198.672L878.827 199.722C878.407 199.274 877.791 198.938 877.077 198.938C876.307 198.938 875.971 199.246 875.971 199.694C875.971 200.184 876.237 200.408 876.923 200.52L877.665 200.618C879.261 200.842 880.031 201.556 880.031 202.774C880.031 204.188 878.841 205.168 877.021 205.168Z" fill="black"/>
</g>
<g id="Icon_10">
<g id="Cloud-services" clip-path="url(#clip7_473_5139)">
<rect width="24" height="24" transform="translate(784 188)" fill="white" fill-opacity="0.01" style="mix-blend-mode:multiply"/>
<g id="Vector_10">
<path d="M803.366 195.593C803.039 193.879 802.124 192.333 800.78 191.221C799.435 190.108 797.745 189.5 796 189.5C794.255 189.5 792.565 190.108 791.22 191.221C789.876 192.333 788.961 193.879 788.634 195.593C787.25 195.84 786.009 196.597 785.156 197.713C784.302 198.83 783.898 200.225 784.022 201.625C784.146 203.025 784.791 204.328 785.828 205.277C786.865 206.225 788.22 206.751 789.625 206.75H790V205.25H789.625C788.556 205.251 787.528 204.836 786.759 204.093C785.99 203.351 785.539 202.338 785.503 201.269C785.466 200.201 785.846 199.16 786.562 198.366C787.279 197.572 788.276 197.088 789.342 197.016L789.97 196.973L790.037 196.348C790.198 194.878 790.895 193.52 791.995 192.533C793.096 191.546 794.522 191 796 191C797.478 191 798.904 191.546 800.005 192.533C801.105 193.52 801.803 194.878 801.963 196.348L802.031 196.973L802.658 197.016C803.725 197.088 804.721 197.572 805.438 198.366C806.154 199.16 806.534 200.201 806.497 201.27C806.461 202.338 806.01 203.351 805.241 204.093C804.472 204.836 803.444 205.251 802.375 205.25H802V206.75H802.375C803.78 206.751 805.135 206.225 806.172 205.277C807.209 204.328 807.854 203.025 807.978 201.625C808.102 200.226 807.698 198.83 806.844 197.713C805.991 196.597 804.75 195.84 803.366 195.593Z" fill="black"/>
<path d="M801.25 204.5V203H799.674C799.577 202.531 799.391 202.084 799.125 201.685L800.243 200.568L799.182 199.507L798.065 200.625C797.666 200.359 797.219 200.173 796.75 200.076V198.5H795.25V200.076C794.781 200.173 794.334 200.359 793.935 200.625L792.818 199.507L791.757 200.568L792.875 201.685C792.609 202.084 792.423 202.531 792.326 203H790.75V204.5H792.326C792.423 204.97 792.609 205.416 792.875 205.815L791.757 206.932L792.818 207.993L793.935 206.875C794.334 207.141 794.78 207.328 795.25 207.424V209H796.75V207.424C797.219 207.328 797.666 207.141 798.065 206.875L799.182 207.993L800.243 206.932L799.125 205.815C799.391 205.416 799.577 204.97 799.674 204.5H801.25ZM796 206C795.555 206 795.12 205.868 794.75 205.621C794.38 205.374 794.092 205.022 793.921 204.611C793.751 204.2 793.706 203.748 793.793 203.311C793.88 202.875 794.094 202.474 794.409 202.159C794.724 201.844 795.125 201.63 795.561 201.543C795.997 201.457 796.45 201.501 796.861 201.671C797.272 201.842 797.624 202.13 797.871 202.5C798.118 202.87 798.25 203.305 798.25 203.75C798.249 204.347 798.012 204.919 797.59 205.34C797.168 205.762 796.597 205.999 796 206Z" fill="black"/>
</g>
</g>
</g>
<line id="Border_3" x1="770" y1="176" x2="770" y2="224" stroke="#0F62FE" stroke-width="4"/>
</g>
</g>
<g id="Control plane_4">
<g id="Icon_11">
<path id="Background color_6" d="M856 240.488H888C892.418 240.488 896 244.07 896 248.488V280.488C896 284.907 892.418 288.488 888 288.488H856C851.582 288.488 848 284.907 848 280.488V248.488C848 244.07 851.582 240.488 856 240.488Z" fill="#0F62FE"/>
<g id="Object-storage">
<rect width="24" height="24" transform="translate(860 252.488)" fill="white" fill-opacity="0.01"/>
<g id="Vector_11">
<path d="M881 267.488H879.5V268.988H881V273.488H863V268.988H870.5V267.488H863C862.602 267.489 862.221 267.647 861.94 267.928C861.659 268.209 861.5 268.591 861.5 268.988V273.488C861.5 273.886 861.659 274.267 861.94 274.548C862.221 274.83 862.602 274.988 863 274.988H881C881.398 274.988 881.779 274.83 882.06 274.548C882.341 274.267 882.5 273.886 882.5 273.488V268.988C882.5 268.591 882.341 268.209 882.06 267.928C881.779 267.647 881.398 267.489 881 267.488Z" fill="#F4F4F4"/>
<path d="M865.25 271.988C865.664 271.988 866 271.652 866 271.238C866 270.824 865.664 270.488 865.25 270.488C864.836 270.488 864.5 270.824 864.5 271.238C864.5 271.652 864.836 271.988 865.25 271.988Z" fill="#F4F4F4"/>
<path d="M882.5 258.488H876.5V262.988H872V268.988H878V264.488H882.5V258.488ZM876.5 267.488H873.5V264.488H876.5V267.488ZM881 262.988H878V259.988H881V262.988Z" fill="#F4F4F4"/>
<path d="M873.5 259.988H867.5V253.988H873.5V259.988ZM869 258.488H872V255.488H869V258.488Z" fill="#F4F4F4"/>
</g>
</g>
</g>
<g id="Label + Text_11">
<path id="Label_11" d="M855.278 310.656C852.716 310.656 851.022 308.906 851.022 305.602C851.022 302.298 852.716 300.548 855.278 300.548C857.854 300.548 859.534 302.298 859.534 305.602C859.534 308.906 857.854 310.656 855.278 310.656ZM855.278 309.018C856.678 309.018 857.574 308.024 857.574 306.358V304.846C857.574 303.18 856.678 302.186 855.278 302.186C853.878 302.186 852.982 303.18 852.982 304.846V306.358C852.982 308.024 853.878 309.018 855.278 309.018ZM861.457 310.488V300.128H863.249V304.384H863.305C863.571 303.544 864.355 303.012 865.321 303.012C867.169 303.012 868.191 304.384 868.191 306.82C868.191 309.27 867.169 310.656 865.321 310.656C864.355 310.656 863.585 310.096 863.305 309.27H863.249V310.488H861.457ZM864.747 309.172C865.671 309.172 866.315 308.5 866.315 307.464V306.204C866.315 305.168 865.671 304.482 864.747 304.482C863.893 304.482 863.249 304.944 863.249 305.658V307.982C863.249 308.738 863.893 309.172 864.747 309.172ZM870.012 311.86V303.18H871.804V311.37C871.804 312.588 871.216 313.288 869.872 313.288H868.892V311.86H870.012ZM870.908 302.116C870.166 302.116 869.858 301.738 869.858 301.22V300.94C869.858 300.422 870.166 300.044 870.908 300.044C871.636 300.044 871.958 300.422 871.958 300.94V301.22C871.958 301.738 871.636 302.116 870.908 302.116ZM876.995 310.656C874.839 310.656 873.551 309.158 873.551 306.82C873.551 304.51 874.797 303.012 876.939 303.012C879.221 303.012 880.271 304.692 880.271 306.694V307.282H875.413V307.464C875.413 308.514 876.015 309.228 877.191 309.228C878.073 309.228 878.605 308.808 879.053 308.234L880.019 309.312C879.417 310.138 878.353 310.656 876.995 310.656ZM876.967 304.356C876.029 304.356 875.413 305.056 875.413 306.064V306.176H878.409V306.05C878.409 305.042 877.891 304.356 876.967 304.356ZM884.892 310.656C882.736 310.656 881.518 309.172 881.518 306.82C881.518 304.482 882.736 303.012 884.892 303.012C886.362 303.012 887.328 303.712 887.762 304.86L886.292 305.518C886.124 304.902 885.662 304.454 884.892 304.454C883.898 304.454 883.394 305.154 883.394 306.176V307.506C883.394 308.528 883.898 309.214 884.892 309.214C885.746 309.214 886.166 308.724 886.432 308.066L887.804 308.724C887.328 310.012 886.306 310.656 884.892 310.656ZM891.627 310.488C890.395 310.488 889.737 309.816 889.737 308.626V304.608H888.659V303.18H889.219C889.751 303.18 889.919 302.928 889.919 302.424V301.178H891.529V303.18H893.027V304.608H891.529V309.06H892.915V310.488H891.627ZM850.453 328.488V318.128H852.245V322.384H852.301C852.567 321.544 853.351 321.012 854.317 321.012C856.165 321.012 857.187 322.384 857.187 324.82C857.187 327.27 856.165 328.656 854.317 328.656C853.351 328.656 852.581 328.096 852.301 327.27H852.245V328.488H850.453ZM853.743 327.172C854.667 327.172 855.311 326.5 855.311 325.464V324.204C855.311 323.168 854.667 322.482 853.743 322.482C852.889 322.482 852.245 322.944 852.245 323.658V325.982C852.245 326.738 852.889 327.172 853.743 327.172ZM863.376 328.488V327.27H863.306C863.054 327.998 862.466 328.656 861.262 328.656C859.764 328.656 858.924 327.62 858.924 325.8V321.18H860.716V325.618C860.716 326.626 861.094 327.172 861.948 327.172C862.662 327.172 863.376 326.794 863.376 326.01V321.18H865.168V328.488H863.376ZM870.282 328.656C868.126 328.656 866.908 327.172 866.908 324.82C866.908 322.482 868.126 321.012 870.282 321.012C871.752 321.012 872.718 321.712 873.152 322.86L871.682 323.518C871.514 322.902 871.052 322.454 870.282 322.454C869.288 322.454 868.784 323.154 868.784 324.176V325.506C868.784 326.528 869.288 327.214 870.282 327.214C871.136 327.214 871.556 326.724 871.822 326.066L873.194 326.724C872.718 328.012 871.696 328.656 870.282 328.656ZM874.736 328.488V318.128H876.528V324.372H876.598L877.564 323.056L879.202 321.18H881.232L878.712 324.008L881.498 328.488H879.37L877.494 325.212L876.528 326.262V328.488H874.736ZM885.37 328.656C883.214 328.656 881.926 327.158 881.926 324.82C881.926 322.51 883.172 321.012 885.314 321.012C887.596 321.012 888.646 322.692 888.646 324.694V325.282H883.788V325.464C883.788 326.514 884.39 327.228 885.566 327.228C886.448 327.228 886.98 326.808 887.428 326.234L888.394 327.312C887.792 328.138 886.728 328.656 885.37 328.656ZM885.342 322.356C884.404 322.356 883.788 323.056 883.788 324.064V324.176H886.784V324.05C886.784 323.042 886.266 322.356 885.342 322.356ZM892.664 328.488C891.432 328.488 890.774 327.816 890.774 326.626V322.608H889.696V321.18H890.256C890.788 321.18 890.956 320.928 890.956 320.424V319.178H892.566V321.18H894.064V322.608H892.566V327.06H893.952V328.488H892.664Z" fill="black"/>
</g>
</g>
<g id="Control plane_5">
<g id="Icon_12">
<path id="Background color_7" d="M856 548H888C892.418 548 896 551.582 896 556V588C896 592.418 892.418 596 888 596H856C851.582 596 848 592.418 848 588V556C848 551.582 851.582 548 856 548Z" fill="#0F62FE"/>
<g id="Object-storage_2">
<rect width="24" height="24" transform="translate(860 560)" fill="white" fill-opacity="0.01"/>
<g id="Vector_12">
<path d="M881 575H879.5V576.5H881V581H863V576.5H870.5V575H863C862.602 575 862.221 575.159 861.94 575.44C861.659 575.721 861.5 576.102 861.5 576.5V581C861.5 581.398 861.659 581.779 861.94 582.06C862.221 582.341 862.602 582.5 863 582.5H881C881.398 582.5 881.779 582.341 882.06 582.06C882.341 581.779 882.5 581.398 882.5 581V576.5C882.5 576.102 882.341 575.721 882.06 575.44C881.779 575.159 881.398 575 881 575Z" fill="#F4F4F4"/>
<path d="M865.25 579.5C865.664 579.5 866 579.164 866 578.75C866 578.336 865.664 578 865.25 578C864.836 578 864.5 578.336 864.5 578.75C864.5 579.164 864.836 579.5 865.25 579.5Z" fill="#F4F4F4"/>
<path d="M882.5 566H876.5V570.5H872V576.5H878V572H882.5V566ZM876.5 575H873.5V572H876.5V575ZM881 570.5H878V567.5H881V570.5Z" fill="#F4F4F4"/>
<path d="M873.5 567.5H867.5V561.5H873.5V567.5ZM869 566H872V563H869V566Z" fill="#F4F4F4"/>
</g>
</g>
</g>
<g id="Label + Text_12">
<path id="Label_12" d="M855.278 618.168C852.716 618.168 851.022 616.418 851.022 613.114C851.022 609.81 852.716 608.06 855.278 608.06C857.854 608.06 859.534 609.81 859.534 613.114C859.534 616.418 857.854 618.168 855.278 618.168ZM855.278 616.53C856.678 616.53 857.574 615.536 857.574 613.87V612.358C857.574 610.692 856.678 609.698 855.278 609.698C853.878 609.698 852.982 610.692 852.982 612.358V613.87C852.982 615.536 853.878 616.53 855.278 616.53ZM861.457 618V607.64H863.249V611.896H863.305C863.571 611.056 864.355 610.524 865.321 610.524C867.169 610.524 868.191 611.896 868.191 614.332C868.191 616.782 867.169 618.168 865.321 618.168C864.355 618.168 863.585 617.608 863.305 616.782H863.249V618H861.457ZM864.747 616.684C865.671 616.684 866.315 616.012 866.315 614.976V613.716C866.315 612.68 865.671 611.994 864.747 611.994C863.893 611.994 863.249 612.456 863.249 613.17V615.494C863.249 616.25 863.893 616.684 864.747 616.684ZM870.012 619.372V610.692H871.804V618.882C871.804 620.1 871.216 620.8 869.872 620.8H868.892V619.372H870.012ZM870.908 609.628C870.166 609.628 869.858 609.25 869.858 608.732V608.452C869.858 607.934 870.166 607.556 870.908 607.556C871.636 607.556 871.958 607.934 871.958 608.452V608.732C871.958 609.25 871.636 609.628 870.908 609.628ZM876.995 618.168C874.839 618.168 873.551 616.67 873.551 614.332C873.551 612.022 874.797 610.524 876.939 610.524C879.221 610.524 880.271 612.204 880.271 614.206V614.794H875.413V614.976C875.413 616.026 876.015 616.74 877.191 616.74C878.073 616.74 878.605 616.32 879.053 615.746L880.019 616.824C879.417 617.65 878.353 618.168 876.995 618.168ZM876.967 611.868C876.029 611.868 875.413 612.568 875.413 613.576V613.688H878.409V613.562C878.409 612.554 877.891 611.868 876.967 611.868ZM884.892 618.168C882.736 618.168 881.518 616.684 881.518 614.332C881.518 611.994 882.736 610.524 884.892 610.524C886.362 610.524 887.328 611.224 887.762 612.372L886.292 613.03C886.124 612.414 885.662 611.966 884.892 611.966C883.898 611.966 883.394 612.666 883.394 613.688V615.018C883.394 616.04 883.898 616.726 884.892 616.726C885.746 616.726 886.166 616.236 886.432 615.578L887.804 616.236C887.328 617.524 886.306 618.168 884.892 618.168ZM891.627 618C890.395 618 889.737 617.328 889.737 616.138V612.12H888.659V610.692H889.219C889.751 610.692 889.919 610.44 889.919 609.936V608.69H891.529V610.692H893.027V612.12H891.529V616.572H892.915V618H891.627ZM850.453 636V625.64H852.245V629.896H852.301C852.567 629.056 853.351 628.524 854.317 628.524C856.165 628.524 857.187 629.896 857.187 632.332C857.187 634.782 856.165 636.168 854.317 636.168C853.351 636.168 852.581 635.608 852.301 634.782H852.245V636H850.453ZM853.743 634.684C854.667 634.684 855.311 634.012 855.311 632.976V631.716C855.311 630.68 854.667 629.994 853.743 629.994C852.889 629.994 852.245 630.456 852.245 631.17V633.494C852.245 634.25 852.889 634.684 853.743 634.684ZM863.376 636V634.782H863.306C863.054 635.51 862.466 636.168 861.262 636.168C859.764 636.168 858.924 635.132 858.924 633.312V628.692H860.716V633.13C860.716 634.138 861.094 634.684 861.948 634.684C862.662 634.684 863.376 634.306 863.376 633.522V628.692H865.168V636H863.376ZM870.282 636.168C868.126 636.168 866.908 634.684 866.908 632.332C866.908 629.994 868.126 628.524 870.282 628.524C871.752 628.524 872.718 629.224 873.152 630.372L871.682 631.03C871.514 630.414 871.052 629.966 870.282 629.966C869.288 629.966 868.784 630.666 868.784 631.688V633.018C868.784 634.04 869.288 634.726 870.282 634.726C871.136 634.726 871.556 634.236 871.822 633.578L873.194 634.236C872.718 635.524 871.696 636.168 870.282 636.168ZM874.736 636V625.64H876.528V631.884H876.598L877.564 630.568L879.202 628.692H881.232L878.712 631.52L881.498 636H879.37L877.494 632.724L876.528 633.774V636H874.736ZM885.37 636.168C883.214 636.168 881.926 634.67 881.926 632.332C881.926 630.022 883.172 628.524 885.314 628.524C887.596 628.524 888.646 630.204 888.646 632.206V632.794H883.788V632.976C883.788 634.026 884.39 634.74 885.566 634.74C886.448 634.74 886.98 634.32 887.428 633.746L888.394 634.824C887.792 635.65 886.728 636.168 885.37 636.168ZM885.342 629.868C884.404 629.868 883.788 630.568 883.788 631.576V631.688H886.784V631.562C886.784 630.554 886.266 629.868 885.342 629.868ZM892.664 636C891.432 636 890.774 635.328 890.774 634.138V630.12H889.696V628.692H890.256C890.788 628.692 890.956 628.44 890.956 627.936V626.69H892.566V628.692H894.064V630.12H892.566V634.572H893.952V636H892.664Z" fill="black"/>
</g>
</g>
<g id="Group 5">
<g id="Control plane_6">
<g id="Line wrapper">
<g id="Line">
<rect width="184.453" height="48" transform="translate(944 264) rotate(90)" fill="white" fill-opacity="0.01" style="mix-blend-mode:multiply"/>
<path id="Line_2" d="M944 448.453L944 272C944 267.582 940.418 264 936 264L896 264" stroke="black" stroke-dasharray="4 4"/>
</g>
</g>
</g>
<g id="Control plane_7">
<g id="Line wrapper_2">
<g id="Line_3">
<rect width="128.528" height="48" transform="matrix(1.53527e-08 -1 -1 -9.2624e-09 944 576)" fill="white" fill-opacity="0.01" style="mix-blend-mode:multiply"/>
<path id="Line_4" d="M944 447.472L944 568C944 572.418 940.418 576 936 576L896 576" stroke="black" stroke-dasharray="4 4"/>
</g>
</g>
</g>
</g>
</g>
</g>
<defs>
<clipPath id="clip0_473_5139">
<rect width="1056" height="48" fill="white"/>
</clipPath>
<clipPath id="clip1_473_5139">
<rect width="960" height="48" fill="white" transform="translate(48 96)"/>
</clipPath>
<clipPath id="clip2_473_5139">
<rect width="960" height="48" fill="white" transform="translate(48 432)"/>
</clipPath>
<clipPath id="clip3_473_5139">
<rect width="208" height="48" fill="white" transform="translate(64 176)"/>
</clipPath>
<clipPath id="clip4_473_5139">
<rect width="208" height="48" fill="white" transform="translate(288 176)"/>
</clipPath>
<clipPath id="clip5_473_5139">
<rect width="208" height="48" fill="white" transform="translate(512 176)"/>
</clipPath>
<clipPath id="clip6_473_5139">
<rect width="208" height="48" fill="white" transform="translate(768 176)"/>
</clipPath>
<clipPath id="clip7_473_5139">
<rect width="24" height="24" fill="white" transform="translate(784 188)"/>
</clipPath>
</defs>
</svg>
